<svg version="1.1" id="Layer_1" xmlns="http://www.w3.org/2000/svg" x="0" y="0" viewBox="0 0 99.9 73" xml:space="preserve" enable-background="new 0 0 99.9 73"><style>.st1{fill-rule:evenodd;clip-rule:evenodd;fill:#fff}.st5,.st6{fill:none;stroke:#fff;stroke-width:.925}.st6{stroke-width:.65}</style><g transform="translate(0 65.952)"><defs><filter id="Adobe_OpacityMaskFilter" filterUnits="userSpaceOnUse" x="0" y=".1" width="50" height="6.9"><feColorMatrix values="1 0 0 0 0 0 1 0 0 0 0 0 1 0 0 0 0 0 1 0"/></filter></defs><mask maskUnits="userSpaceOnUse" x="0" y=".1" width="50" height="6.9" id="crest-and-logo-b_1_"><g filter="url(#Adobe_OpacityMaskFilter)"><path id="crest-and-logo-a_1_" class="st1" d="M0 6.9V.1h99.9v6.8z"/></g></mask><path d="M1.3 3.9c-.1 0-.1.1-.1.1.1.1.2.2.4.3h-.2.2c.6.2 1.4.2 1.9.2.2 0 .5 0 .7-.1h3.9c2.3.1 4.6.1 6.7.3.2 0 .2-.2.3-.2.2-.1.6 0 .8.1.9.2 1.9.5 2.8.3 0 0-.2-.1-.2-.2.3-.1.5-.1.7-.2.9-.1 1.8.4 2.7.4.4 0 1-.1 1.3-.1h1.6c.1 0 .2-.2.3-.2h.5c1.3 0 2.6.1 3.8.2 2.2.1 4.4.2 6.5-.1.7-.1 1.4-.1 2.1-.1 1.4.1 2.6.5 3.9.6l-.1-.1c-.1-.1-.3-.2-.4-.3 2.1.4 3.9.4 6 .7.7.1 1.6.2 2.5.3V7h-6c-3.3 0-6.3.2-9.9.1-2.2-.1-4.2-.1-6.3-.3-3.1-.2-6.3-.4-9.4-.5-6-.4-12.5-.6-18-1.6-.1-.1-.3-.2-.3-.4s.2-.3.3-.4c.3-.1.6-.3.9-.4l.1.4M37 .7c-.3-.2-.6-.4-1-.6 1.2.1 2.5.1 3.8.1h2.8c.9.7 3 2.1 7.3 4.3.1 0-.9-.1-1.3-.2-3.7-.6-6.7-1.6-9.5-3-.6-.1-1.1-.3-1.8-.3L37 .7" mask="url(#crest-and-logo-b_1_)" fill-rule="evenodd" clip-rule="evenodd" fill="#fff"/><defs><filter id="Adobe_OpacityMaskFilter_1_" filterUnits="userSpaceOnUse" x="49.8" y="3.5" width="50.1" height="3.5"><feColorMatrix values="1 0 0 0 0 0 1 0 0 0 0 0 1 0 0 0 0 0 1 0"/></filter></defs><mask maskUnits="userSpaceOnUse" x="49.8" y="3.5" width="50.1" height="3.5" id="crest-and-logo-b_2_"><g filter="url(#Adobe_OpacityMaskFilter_1_)"><path id="crest-and-logo-a_2_" class="st1" d="M0 6.9V.1h99.9v6.8z"/></g></mask><path d="M98.7 3.9c.1 0 .1.1 0 .1-.1.1-.2.2-.4.3h.2-.2c-.6.2-1.4.2-1.9.1-.2 0-.5 0-.7-.1h-3.9c-2.3.1-4.6.1-6.7.3-.1.1-.1-.1-.3-.1-.2-.1-.6 0-.8.1-.9.2-1.9.5-2.8.3 0 0 .2-.1.2-.2-.3-.1-.5-.1-.7-.2-.9-.1-1.8.4-2.7.4-.4 0-1-.1-1.3-.1h-1.6c-.1 0-.2-.2-.3-.2h-.5c-1.3 0-2.6.1-3.8.2-2.2.1-4.4.2-6.5-.1-.7-.1-1.4-.1-2.1-.1-1.4.1-2.6.5-3.9.6l.1-.1c.1-.1.3-.2.4-.3-2.1.4-3.9.4-6 .7-.7.1-1.6.2-2.5.3-.2.6-.2 1 0 1.2h6c3.3 0 6.3.2 9.9.1 2.1-.3 4.1-.3 6.2-.4 3.1-.2 6.3-.4 9.4-.5 6.1-.2 12.6-.4 18.1-1.5.1-.1.3-.2.3-.4s-.2-.3-.3-.4c-.3-.1-.6-.3-.9-.4v.4" mask="url(#crest-and-logo-b_2_)" fill-rule="evenodd" clip-rule="evenodd" fill="#fff"/></g><path class="st1" d="M63.1 66.6c.3-.2.7-.4 1-.6-1.2.1-2.5.1-3.8.1h-2.8c-.9.7-3 2.1-7.3 4.3-.1 0 .9-.1 1.3-.2 3.7-.6 6.8-1.6 9.6-3 .5-.2 1-.5 1.7-.5 0 0 .1-.1.3-.1m-3.2-14c-.1 0-.4.1-.4.1s0-.1-.1-.1c-.9.1-1.9.3-3 .6-.4.1-.8.2-1.2.2-1.8 0-3.1-1.1-5.3-1.1-2.1 0-3.5 1.1-5.3 1.1-.4 0-.8-.1-1.2-.2-1.2-.4-2.2-.6-3.1-.7 0 .1.1.2.1.3.1.2.2.2.4.2.6.1 1.1.3 1.6.4.6.1 1.1.2 1.7.2h1.3c.3 0 .7-.1 1-.1.3-.1.5-.1.7-.2.5-.1 1-.3 1.6-.4.5-.1 1.1-.2 1.7-.3h.9c.5.1 1.1.2 1.5.3.2.1.4.2.7.2.8.2 1.7.4 2.6.2 1.1-.1 2-.3 2.9-.6.5-.2 1-.3 1.5-.4H60c.1.3 0 .3-.1.3zm3-3.6c-.1.2-.4.5-.6.7-.1.1 0-.1.1-.1.1-.1.2-.4.2-.5v-.2c0-.1.3-.2.3-.2.1.1 0 .2 0 .3zm-1.3 0c0 .1-.1.3-.2.5-.2.2-.4.4-.5.4.2-.3.5-.9.8-1.2.1-.1-.1.3-.1.3zM60 47.8c-.1.1-.2.4-.3.4h-.2s.2-.2.2-.3c.1-.2.2-.3.3-.5.1 0 0 .4 0 .4zm-.5 1.7c-.3.2-.5.2-.8.3-.1 0-.4.1-.5.1 0 0 .1-.2.2-.2.2-.2.4-.5.6-.7 0 0 .2-.1.1-.2 0-.1-.3 0-.4 0-.4.1-.7.2-1 .4-.1 0 0-.1 0-.1.1-.1.5-.3.6-.3.1 0 .2 0 .3-.1.2 0 .5-.1.7-.1.1 0 .1 0 0 .1-.1.2-.2.4-.4.6l-.2.2c0 .1.2 0 .3 0 .3 0 .5-.2.7-.2.2-.1-.1.2-.2.2zm.3.8c0 .1-.3.2-.4.3-.2.1-.6 0-.8.1-.2 0-.1.1 0 .1h.6l-.2.2c-.2.1-.6 0-1 0-.3 0 .1.1.2.2.1 0 .5 0 .4.1-.2.1-.4.1-.6.1-.3 0-.7 0-1 .1-.2 0-.2.2-.4.3-.3.2-.8.2-1.1 0-.2-.1-.5-.2-.7-.2.5-.1.8-.4 1.1-.5.2-.1.6-.3.9-.3.1 0 .1.1.2.1l.1-.1c.3-.2.8-.4 1.2-.4.5-.1 1.1 0 1.5-.1 0 0 .1-.1 0 0zm-5.5-1.6l.2-.1h.2c.3 0 .5 0 .6.2 0 .1 0 .2-.1.3l-.1.1V49c-.1-.2-.5-.1-.7-.2.1 0-.1-.1-.1-.1zm-.1.8v-.3c-.1-.1-.2-.2-.4-.2-.1 0-.1 0-.2-.1l-.2-.1c0-.1.2-.1.3-.1.6-.1.9.4.5.8zm-.8.1l-.1-.2c-.1-.1-.2-.2-.4-.2-.1 0-.2.1-.3.1 0 0-.2-.1-.2-.2l.2-.1c.1 0 .1-.1.2-.1.3 0 .5.1.5.4.2.1.1.3.1.3zm-1 .1c-.1.2 0 .1 0 0-.1-.3-.5-.3-.7-.2-.1 0-.2.2-.3.2h-.2l.1-.1c.2-.2.5-.3.8-.4.4 0 .5.2.3.5zm-1 .7s-.2-.2-.3-.2c-.3-.1-.7.3-.8.3h-.2s.1-.2.2-.2c.2-.2.5-.3.9-.3.2 0 .4 0 .4.2-.1-.1-.2.1-.2.2zm-1 .6s-.3-.1-.4-.1c-.2 0-.6.1-.8.2-.1 0 .1-.2.2-.2.1-.1.2-.1.4-.2.2 0 .5.1.5.2.1-.1.1 0 .1.1zm-1.3-1.3c0-.1.4-.1.5-.1.2 0 .5.1.5.2s.1.3 0 .2c-.1-.1-.3-.2-.6-.2-.1 0-.2.1-.4-.1.1 0 0 0 0 0zm2-.4c0 .1 0 .1 0 0-.1-.2-.2-.4-.3-.4-.2-.1-.3.1-.5 0l-.2-.1s.3-.1.4-.1c.4-.1.8.2.6.6zm.5-1c-.2 0-.3.2-.6.2-.2 0-.2 0-.1-.1.2-.2.3-.3.7-.3.5 0 .8.2.6.6l-.1.2v-.1c-.1-.3-.2-.5-.5-.5zm1-.4c-.2 0-.2.2-.5.1H52s.3-.2.4-.3h.2c.5 0 .9.3.6.7l-.1.2v-.2c0-.3-.2-.5-.5-.5zm-3.5 2.3l-.1-.1c-.3-.3-.8.1-1 .2-.1 0-.2.1-.2 0 .2-.6.5-1.2 1-1.4.1-.1.3-.1.4-.1.1 0 .2-.3.2-.4.1-.2.3-.3.5-.4.1-.1.1 0 .2-.1.1-.2.5-.5.8-.6.2-.1.4 0 .5 0 .1 0 .2-.2.3-.3.2-.1.5-.2.8-.3.3 0 .6.1.8.2.1.1.2.2.2.3 0 0-.3-.2-.4-.2-.3-.1-.8 0-1 0-.1 0-.3.1-.3.2l.3.4c-.1.1-.3-.1-.4-.1-.3-.1-.7.1-.9.2l-.3.2s.3.2.4.2c0 0 .1 0 .1.1s-.3 0-.4 0c-.3 0-.7.2-.9.4l-.1.2h.1s.2.1.3.2c0 0 .1.1 0 .2l-.2-.1c-.5-.1-.8.2-1.1.4-.1.1-.5.3-.3.4h.3c.1 0 .3.1.4.2v.1zm-.4.9s-.1.1-.2.1c0 0-.1-.2-.1-.3-.1-.2-.5-.2-.8-.1.2-.2.8-.3 1-.1.1.1.1.3.1.4zM47.3 50l-.3.2c-.1 0 0-.5.1-.5 0-.1 0 .2.1.2s.3-.2.4-.3c.1 0 .3-.2.4-.2l-.3.4c-.1.1-.3.2-.4.2zm.2-.9c0-.3.2-.4.3-.6 0 .1-.1.5 0 .5.1.1.2-.1.3-.1.2-.1.4-.2.7-.3.2-.1-.1.2-.2.2-.3.2-.5.3-.8.5l-.2.1c-.2 0-.1-.2-.1-.3zm.6-.8c.1-.3.3-.5.4-.7 0 0-.1.2-.1.3 0 .1-.2.3 0 .4.1 0 .5-.2.5-.3l.6-.3c-.3.3-.6.5-1 .7-.1 0-.4.2-.5.1.1 0 .1-.1.1-.2zm.8-.9c0-.1.1-.2.1-.2.1-.1.3-.2.3-.2s-.4.5 0 .5c.1 0 .4-.2.6-.3.1 0 .3-.1.2 0-.3.2-.6.4-.9.5-.1 0-.3.1-.3.1-.1-.2 0-.4 0-.4zm1-.8c.1-.1.4-.4.5-.4 0 0-.2.2-.1.3.1.1.5 0 .6 0 0 0 .2-.1.2 0l-.1.1c-.1.1-.5.1-.7.2-.1 0-.4.1-.4.1-.1-.2 0-.3 0-.3zm1.5-.7c.1-.1.3-.3.4-.3.2 0-.3.3 0 .3.1 0 .4.1.6.1h-.8c-.3.1-.4.1-.2-.1zm1.1-.3c.6-.3 1.5-.3 2.3-.2-.2 0-.5.2-.8.2l-.1-.1c-.3-.1-.5.1-.7.1h-.7s.4-.2 0 0zm1.1-.8c.1-.1.1-.3.1-.4v-.1s.2.2.2.3c0 .1 0 .3-.1.3h-.3c0 .1.1-.1.1-.1zm1.5 1.1c-.3.1-.5.2-.8.2-.3.1-.6.2-1.1.2.5-.3 1.2-.4 1.9-.4zm.2-.7c.2-.2.3-.5.4-.8v-.2s.1.4.1.6c-.1.2-.2.5-.4.6h-.3c0-.1.2-.2.2-.2zm-1 2.7c0 .1 0 .4-.1.2 0-.2-.2-.3-.4-.3s-.3.1-.4.1c0 0-.1-.1-.1-.2s.4-.1.5-.1c.3-.1.5 0 .5.3zm-.4-1.2c-.2-.1-.4-.1-.5-.2-.1-.1 0-.1.1-.1.4 0 .7.1.9.4 0 .1.1.3.1.3l-.1-.1c-.2-.1-.3-.2-.5-.3zm1.3.1c-.2-.1-.5-.3-.8-.4h.5c.1 0 .3.3.4.4v.2c.1 0-.1-.2-.1-.2zm-.1 1.3c0-.4-.1-.6-.3-.7h-.1v-.2h.1c.5 0 .6.3.4.7 0 .1 0 .2-.1.2.1 0 0 .1 0 0zm1.1-1.6c.1.1.2.4 0 .2-.1-.1-.4-.3-.7-.2l-.2-.1c0-.1.3-.1.4-.1.3 0 .4 0 .5.2zm-.3.5s-.1-.1 0 0c0-.1.3-.1.3 0 .2.2.1.9-.1 1.1-.1.1 0-.2 0-.3 0-.3-.1-.7-.2-.8zm.2 1.8c-.1-.1-.2-.1-.3-.1h-.1l-.1-.2c.1-.1.8.1.8.2.2.2-.2.4-.3.5-.1-.1.1-.2 0-.4zm.5-3.3c.1-.1.3-.2.3-.3 0 0 0-.1.1-.1 0 0-.1.4-.2.6-.1.1-.2.3-.3.3l-.2-.2c-.1-.1.2-.3.3-.3zm.5 1.2c.2-.1.3-.4.5-.5 0 .2-.1.3-.2.4-.1.1-.2.4-.3.4 0 0-.1-.1-.1-.2l.1-.1zm.2 2.5c-.1.1 0-.2-.1-.3-.1-.1-.3-.2-.4-.2 0 0-.2 0-.2-.1s.2-.1.2-.1c.2 0 .4 0 .5.1.2.3.2.5 0 .6zm.7-1.7l-.4.4c-.1.1-.1.3-.2.3h-.3l.2-.2c.1-.1.1-.2.2-.2.1-.1.3-.3.5-.3zm.1-.6c.1-.2.3-.4.3-.6 0 .3-.1.8-.4.9h-.2c0-.1.2-.3.3-.3zm.5.6h.2c.1.1.1.4 0 .4l-.2-.1c-.2 0-.4.2-.6.3l-.2.1s.1-.3.2-.3c.2-.2.4-.3.6-.4zm-15-14.6c-.5.1-.6-.6-.2-.7.5-.1.5.6.2.7zm-2.1 2s-.2-.3-.3-.3c0 0 0-.1-.1-.1 0 0 .3-.2.4-.2.1 0 .4.3.4.4l-.4.2zm22 13l-.1-.2c-.1 0-.2.3-.3.3-.3.4-.6.6-1 .9l-.1.1s.1-.2.1-.3v-.8s-.2.2-.2.3c-.1.1-.2.1-.2.2 0 0-.2.2-.3.1 0 0 .1-.2.1-.3 0-.3 0-.5-.1-.7 0-.1-.1-.3-.2-.4l-.1-.1c-.1 0 0 .2 0 .2-.1.2-.3.4-.4.6-.1.1 0-.2 0-.3 0-.6-.3-.9-.6-1.3-.1-.2-.1 0-.1.1 0 .3-.2.7-.3.8l-.1.1v-.3c0-.1 0-.3-.1-.4 0 0-.1-.3-.2-.3 0 0 0 .2-.1.2l-.1.2v-.2c-.1-.5-.2-.8-.5-1.1-.1-.1-.2-.3-.4-.3-.1 0 0 .2 0 .3v.2c0 .1 0 .2-.1.2 0-.1-.2-.2-.3-.2-.1 0-.3.1-.3.1l.1-.3c0-.4-.1-.9-.3-1.1 0 0-.2-.3-.3-.2 0 0-.1.2-.1.3-.1.2-.1.4-.2.5 0 0-.1.2-.2.2v-.3c-.1-.6-.6-1-1.1-1.1h-.2l.1.2c.1.3-.1.7-.3.9 0 0-.2.1-.3.1 0 0 0-.1-.1-.2-.2-.3-.6-.7-1.2-.6h-.2l.2.1c.2.2-.2.7-.3.8-.3.2-.8.3-1.1.5-1.2.4-2.2.9-3.1 1.7-.8.8-1.5 1.7-2.1 2.7-.4.7-.9 1.5-1.9 1.3-.7-.1-1.1-.8-1.2-1.5-.1-.7.2-1.4.4-2 .4-1.6 1-3.1 1.4-4.6.4-1.5.9-3.6 1.1-4.6.8-4-.1-5.6-.6-6.2-.2-.3-.7-.6-1.2-.6-1.1 0-1.7.6-2.1 1.3 0 .1-.1.3-.1.3 0 .1.2.1.2.2.2.2 0 .4.1.7 0 .1.1.4.2.4-.1 0-.1-.2-.1-.2-.1-.2 0-.5-.1-.7 0-.1-.2-.3-.2-.2l-.1.2c-.2.3-.5.5-.7.7-.4.3-.9.5-1 1v.3c.1 0 .1-.1.2-.1s.2-.1.3-.1c.5-.2.9-.4 1.3-.6.2-.1.5-.3.8-.3.2 0 .5 0 .8-.1.2-.1.5-.2.6-.3.2-.1.4.3.5.4.1.2.1.4.1.6 0 .3 0 .7-.1 1 0 .3-.1.7-.1 1-.7 3.6-1.8 6.6-3.2 9.4-.6 1.2-1.3 2.4-1.6 4-.1.6-.1 1.3.1 1.9.9.1 2 .3 3.3.7.4.1.7.2 1.1.2 1.6 0 3-1.1 5.3-1.1s3.7 1.1 5.3 1.1c.4 0 .7-.1 1.1-.2 1.1-.4 2-.6 2.8-.6-.1-.1-.2-.1-.3-.1-.2 0-.4.1-.5.1-.2.1-.5 0-.7 0 .1-.1.2-.1.4-.2.1-.1.2-.2.4-.3.3-.1 1.2 0 1.4.2l.2.2h.3c.5 0 .9 0 1.3.1h.1c.2-.1.4-.3.5-.5.2-.2.4-.4.5-.7.2-.3.3-.5.4-.9.1-.2.2-.3.3-.6.1-.2.2-.4.2-.7-.4-.4-.4-.9-.5-1.2z" transform="translate(0 .178)"/><path class="st1" d="M35.5 54c1.1-.7 3-2.3 7.9-.6.5.2 1.3.3 2.5-.1 2.1-.7 3.6-1.3 6.2-.5 2.8.9 3 1 5.2.2.3-.1 3.9-1.2 6.8.9.1.1-1.1 2.6-1.2 2.8-.1.1-2-1.8-6.7-.3-1 .3-1.5.4-3.4-.2-1.4-.5-2.5-1-5-.3-.8.2-2.6 1.2-4.2.5-.5-.2-2.2-.7-4.3-.5-1.3.1-2.3.9-2.4.8-.1-.1-.7-1.4-.7-1.5-.2-.2-.7-1.2-.7-1.2m2.9 5.1c.1 0 1.5-1 5.4 0 .2.1 1.2.8 3.1 0 1.6-.6 3-1.1 5.3-.3.5.2 2.2 1 3.7.3 1.4-.6 4.1-.8 5.5-.1 0 0-3.7 6.1-11.5 10.8-.1 0-7-4.1-10.9-9.9-.2-.1-.6-.8-.6-.8" transform="translate(0 .178)"/><path class="st5" d="M66.8 34.9v4.6c0 19.1-11.1 26.8-16.9 30.4C44.2 66.3 33 58.6 33 39.5v-4.7" transform="translate(0 .178)"/><path class="st1" d="M66.4 33.5v-.6h.7v.4l-.2.1c-.1-.1-.5.1-.5.1" transform="translate(0 .178)"/><path class="st5" d="M33 32.1v-4.7h33.8v4.5" transform="translate(0 .178)"/><path class="st1" d="M32.8 33.2c-.1-.1-.1-.2-.1-.2v-.2h.7v.6c0 .1-.2-.2-.3-.2h-.3" transform="translate(0 .178)"/><path class="st6" d="M61.6 59.1c-1-.4-2.9-.8-6 .3-1.9.6-3.3-.9-5.6-.9s-3.6 1.5-5.5.9c-3.2-1.1-5.1-.7-6-.2M63 56.6c-.9-.6-3-1.6-6.9-.3-2.1.7-3.5-.9-6.1-.9-2.5 0-4 1.6-6.1.9-3.9-1.3-6-.3-7 .3" transform="translate(0 .178)"/><path class="st1" d="M33.9 22.3c-.1 0-.5.3-.5.3l.2-.2c.2-.2.2-.2.5-.3.4-.2.7-.3 1-.4-.5.2-.8.4-1.2.6zm-2.3 1.4c-.3.2-.5.4-.7.6l-.6.6c-.3.5-.5 1.2-.5 1.8.1 1.5.7 2.9 1.3 4.1.1.2.3.5.2.5-.1.1-.2 0-.2-.1-.4-.5-.8-1.2-1-1.8-.3-.7-.6-1.6-.8-2.4-.2-1 .1-1.8.6-2.4.4-.4 1-.9 1.6-1.2.6-.4 1.1-.7 1.7-.9.1 0 .3-.1.3-.1-.1.1-.5.4-.6.5-.5.2-.9.5-1.3.8zm.3 7.7s-.2.6-.4.6c.3-.1.4-.1.7-.2.1 0 .4-.2.4-.1.1.1-.2.3-.3.4-.2.1-.3.2-.4.3.4 0 1.1-.3 1.4-.2l.3.3c0 .1-.6.1-.6.1-.5.1-.7.2-1.1.4.5.1 1.1.3 1.4.6 0 .1.2.4.1.3-.3-.2-.8-.4-1.1-.4l-.7-.1c0 .1.1.1.1.1.3.1.5.2.7.4l.3.3c0 .1-.2.2-.2.2-.3 0-.5-.4-.7-.5-.4-.2-1.1-.3-1.7-.3-.9 0-1.9.1-2.7 0-.7 0-1.5-.1-2.2-.2-.8-.1-1.6-.2-2.3-.2-.4 0-.7.1-.9 0-.7-.3-.6-1.2-.7-2-.1-.9-.2-1.7-.3-2.6.2.3.2.6.3.9.1.3.3.4.4.7.1.3.1.6 0 1 0 .8.1 1.5.8 1.6h.2c.1 0 .1.1.2.1h.9c.3 0 .6.1 1 .1.2 0 .5.1.8.1 1.1.2 2.4.3 3.5.3-.4-.1-.9-.2-1.3-.4-.3-.1-.8-.1-1.1-.2-.3-.1-.5-.2-.7-.2-.1 0-.1 0-.2-.1-.6-.1-1.3-.1-1.9-.3-.4-.1-.7-.4-1-.5h-.1c-.1-.1-.4-.5-.5-.7-.1-.2 0-.7.1-.9.1-.1.4-.2.5-.2.4-.2.7-.6.7-1.1 0-.1-.1-.4 0-.5.1-.1.4.1.5.2.1.2.1.5.2.6 0-.2-.1-.5-.1-.7 0-.2 0-.5-.1-.6 0-.1-.1-.2-.2-.3-.1-.1-.2-.1-.2-.2-.1-.2 0-.4 0-.6 0-.1-.1-.3-.1-.4-.1-.1-.2-.1-.3-.2v-.3c0-.2-.1-.5-.2-.6 0-.2.1 0 .2 0 .3.2.4.5.6 1 .1.2.2.5.3.7 0 .1.2.3.2 0 0-.2-.1-.4-.1-.5 0-.3.2-.7.1-1.1 0-.4-.3-.5-.2-.9 0-.2.2-.3.2-.6s-.2-.6-.3-.9v-.3c-.1-.4-.1-1.1 0-1.5.1-.3.1.2.1.3.1.8.5 1.9 1.1 2.4.4.4.9.8 1.2 1.3.7.9 1.1 2.1 1.5 3.2.1.4.3 1.1.3 1.6 0 .6-.2 1.2-.4 1.7l-.1.4-.3-.3c-.1-.1 0-.4 0-.6 0-.8 0-1.3-.1-2-.2-.8-.6-1.6-.9-2.2-.1-.1-.2-.4-.3-.4-.1 0 .1.3.1.3.6 1 1 2.3.9 3.8 0 .1 0 .4-.1.5-.1.1-.4-.1-.4-.2-.2-.2-.4-.6-.7-.8-.1.3.1 1.2-.2 1.3-.1 0-.3-.1-.4-.1-.1 0-.3-.1-.4-.1-.3-.1-.2-.1-.4-.4 0-.1-.1-.1-.2-.1v-.2c-.1-.2-.3-.4-.4-.5v-.3c0-.1-.2-.5-.2-.5-.1 0-.1.4-.2.5-.1.3-.1.6-.1 1 0 .1 0 .4.1.5.1.1.3.1.5.1.3 0 .7.2 1 .3.8.2 1.6.5 2.4.6.4.1.8.2 1.2.2.5 0 1.2.1 1.6 0 .2-.1.4-.2.7-.4.3-.3.7-.7.9-.6zm-4.3 3.3c-.1.6-.2 1.4-.2 2.1-.1 1.6-.1 3.3-.3 4.9-.2 1.4-.3 2.7-.5 4 .3-.9.4-1.9.6-2.9 0-.1 0-.4.1-.4l.1.2c.3.6.4 1.3.6 2 .2 1 .2 2.1.2 3.2 0 .8-.1 1.5-.3 2.2-.1.4-.4.8-.5 1.2-.1.6-.5 1.1-.7 1.8-.1.6-.2 1.4-.3 2-.3 2.2-.6 4.3-.8 6.5-.1.5-.1 1.1-.1 1.6 0 .6.3.9.7 1.1 1.9 1 4.9.9 7.3 1.4-.4 0-.9.1-1.4.1.5.1 1.2 0 1.7.2-.5 0-1 .1-1.5.2.1 0 .5.2.4.3l-.3.1c-.6.1-1.4 0-2-.1-1.2-.1-2.6-.3-3.9-.1-.7.1-1.4 0-2 0h-.3s-.2.1-.3 0c-.1-.1-.3-.6-.2-.7l.2-.1s0 .2.1.3c.1.1.2.2.4.2.3 0 .6-.2 1-.2 1.1-.1 2.4.3 3.4.2-1-.2-2.1-.3-3.3-.4-.2 0-.8 0-.9-.1-.1-.1.1-.4.1-.6v-.2c-.1-.3-.1-.9-.1-1.3.1-2 .1-4 .3-6 .1-.8.2-1.5.2-2.3 0-.5.2-.8.3-1.2.1-.2.1-.4.2-.6.3-1.2.6-2.5.7-3.9.1-1.2.1-2.9-.3-3.9 0-.1-.1-.1-.1-.2-.3-.8-.7-1.4-1.1-2-.2-.2-.3-.5-.4-.7-.2-.3-.4-.5-.6-.8-.2-.3-.4-.6-.7-.8-.3-.2-.8-.3-1.2-.3-.4 0-.9-.3-1.3-.3h-.5c-.1 0-.6.1-.4 0 .7-.3 1.5-.3 2.3-.1.3.1.6.1.8.2.7.2 1 .6 1.4 1.1.1.1.3.4.3.4.1 0 .2-.4.2-.5 0-.8-.9-1.3-1.1-1.9-.1-.3.1-.3.4-.2.4.2 1.3.3 1.2-.3 0-.1-.1-.3-.1-.4 0-.1.1-.3.2-.4.1 0 .2 0 .3-.1 1-.5.7-2.1.9-3.3.1-.4.1-.6.2-.9 0-.1.4 0 .5 0h.5s-.1.6-.1.7zM25 67.5c.5.1 1.1.2 1.7.2 1.7.2 3.4.2 5 .3.1 0 .6.1.4.1-.2 0-.4.1-.6.2-.1 0-.4 0-.4.1s.6.2.7.2c.1.1 0 .1.2.1-.2 0-.1.1-.2.1-.3.1-.7 0-1.1.1-.1 0-.3 0-.3.1l.3.1h.8c.2 0 .7.2 1 .2.3.1-.1.1-.3.1h-1.3c-.6 0-1.1-.1-1.7-.2h-1.4c-.6-.1-1.3-.2-1.9-.2-.6-.1-1.3-.2-1.9-.2h-1c0 .1.4.2.5.2-.4.1-.9.2-1.3.2-.2-.2-1.2-.1-1.5-.2-.1-.1-.1-.3-.2-.4-.1-.2-.2-.3-.2-.4-.1-.5.1-1.1.2-1.6.2-.9.3-1.9.4-2.8 0-.2.1-.5.1-.5h.2c.3.1.3.3.2.7 0 .2 0 .3-.1.5-.1.6-.3 1.7-.4 2.3 0 0-.1.2-.1.3.1.1.2-.2.2-.2.5-2 .9-4 1.1-6 .1.4-.1 1-.1 1.5 0 .9-.1 1.8-.2 2.5-.2 1.1-.7 2-.7 3.2 0 .2.1.5.2.6.1.2.5.1.8.1.2 0 .7.1.8-.1 0-.1-.3-.1-.3-.1-.2 0-.4-.2-.5-.2-.5-.3-.4-1.2-.3-1.9.2-.9.3-2 .4-2.8.1-.9.2-1.6.3-2.5.1-1.1.1-2.2.2-3.3 0-.7.1-1.4.2-2.1.1-.8.3-1.2.5-1.8 0-.1 0-.2.1-.4l.2-.3s-.1.3-.1.4c-.3 1-.4 2.3-.4 3.5 0 .3-.1.6-.1 1 0 1.5-.1 3.2-.2 4.5-.1.5-.2 1.2-.2 1.9 0 .1-.1.3 0 .2.2-.1.1-.6.2-.9.1-.2.2-.3.2-.6 0-.4.1-.9.1-1.2 0-.6.1-1.2.2-1.8 0-.4.1-.8.1-1.2 0-.2.2-.2.2-.4.1-.3.1-.8.1-1.1 0-.8.2-1.6.3-2.3.1-.8.2-1.3.4-2 .1-.2.2-.5.3-.7 0-.1.2-.4.2-.5 0 0 0-.2-.1-.2 0 0-.2.3-.2.4-.2.3-.3.5-.5.8l-.3.4.2-.5c.2-.6.4-1.1.6-1.5.3-.6.3-1.2.5-1.9.1-.3.2-.8.2-1.3 0-.4.1-.9.1-1.3 0-.1-.1-.3-.1-.3v.4c-.1.9-.3 1.8-.5 2.5 0 .1-.2.5-.1.3 0-.4.1-.6.1-1 .1-.8.2-1.4.2-2.2 0-.3 0-.6-.1-.9-.1-.4-.4-.8-.6-1.1-.2-.4-.2-.9-.4-1.3-.1-.4-.4-.7-.7-1-.1-.2-.3-.4-.4-.5-.3-.3-.7-.4-1.1-.5-.3-.1-.5-.3-.9-.4-.2-.1-.7-.2-.9-.2-.3 0 .1 0 .1-.1.6-.1 1.1.2 1.5.3.4 0 .6.1.8.2.3.1.6.2.8.3.7.7 1 1.7 1.6 2.6.6.9 1.1 1.8 1.1 3 0 .7.1 1.2 0 1.7 0 .2-.1.4-.1.6v1.1c-.1.9-.3 1.9-.6 2.7-.2.6-.4 1.1-.5 1.8-.1.6-.2 1.2-.3 1.9-.1 1-.3 1.9-.4 2.8-.2 2.2-.7 4-.8 6.1v.3c-.1.1-.2.1-.3.1v.2c-.1.3-.2.8-.2 1.2 0 .2.2.2.4.3.3.1.7 0 1.1 0-.3-.1-.6-.3-.8-.5-.1-.1-.3-.6-.3-.7.1-.2.3.2.3.2.5.2 1 .4 1.6.6zm-4.8-1.7c0 .2-.1.4-.1.5-.1.1-.2 0-.2 0-.5-.1-1.3.1-1.9.1h-.3c-.1 0-.3.1-.3 0 .7-1.6 1.2-3.6 1.3-5.5.1-1.1.1-2.1.3-3.1.2-1.2.4-2.2 1-3 .1 0 .1.1.2.2.1 0 .2.1.2.1.1.1.1.4.2.5.2.3.4.4.5.8.1.8 0 1.9-.1 2.9-.1 1.2-.2 2.3-.3 3.3-.1.6-.2 1.2-.3 1.9 0 .4-.1.8-.2 1.3zm-.5 2s.1.2 0 .2h-.4c-.9 0-1.5.1-2.3.2-.2 0-.8.2-.9.1 0 0 .3-.4.4-.4.1-.1.3-.4.4-.5h.6c.6-.1 1.3-.1 1.8-.1h.6s-.1.4-.2.5zm-3.9.2c-.4.3-.7.6-1.1.8-1.4.6-3 .6-4.9.7 1.4-.2 2.7-.5 3.8-1 .3-.1.7-.3 1-.6l.2-.2.2-.2c.6-.6 1.1-1.4 1.5-2.2l.3-.9c.1-.4.2-.8.3-1.3.2-.8.3-1.5.5-2.4.2-1.5.2-3.4.4-4.9v-.5c0-.1.1-.3.2-.5s.2-.7.2-.2c0 1-.2 2-.3 3 0 .4-.1.9-.1 1.3v.7c0 .6-.1 1.2-.2 1.9v.1c.1-.1.1-.3.1-.3.1-.3.1-.6.1-1 0-.5.1-1.1.1-1.5 0-.2 0-.4.1-.6v-.3c0-.3.1-.6.1-.9.2-.9.4-1.7.6-2.5 0-.1.2-.5.3-.7 0 0 0-.1 0 0-.1.8-.3 1.5-.4 2.3-.4 3.1-.5 6.6-1.5 9.3-.3 1.2-.8 2-1.5 2.6zm-3.5 0c1.4-.5 2.5-1.1 3.3-2.2 0 0 .1-.1.1 0 0 .2 0 .3-.4.9-.6.9-1.5 1.3-2.6 1.7-.2.1-.6.1-.8.2-.7.2-1.3.2-2.1.2.6-.5 1.5-.4 2.5-.8zm-3.4.9c-.5.1-2.5.1-3.1.1.4 0 2-.2 2.4-.3.4 0 .7-.1 1-.1.3 0-.2.2-.3.3zm9.1-16c0-.2.1-.6.1-.8.1.2.1.6.1.9 0 .4.2.8.1 1 0 .1-.1.3-.2.5s-.1-.2-.1-.3v-1.3zm3.3.9c-.1.2-.5.4-.8.4-.1 0-.2-.3-.3-.4-.3-.4-.6-.7-.9-1 .3.1.5-.2.8-.1.1.1.2.3.3.4.1 0 .2.1.3.2h.4c.3 0 .3.4.2.5zm.3 6c-.1-.1-.1-.5-.1-.7 0-.9.2-1.8.1-2.7 0-.2 0-.5-.1-.6 0-.1-.1-.1-.1-.2-.1-.2-.4-.7-.6-.9-.1-.1.2-.1.3-.1.2 0 .2-.1.3-.1.5-.1.8.3.8.8.1.6-.1 1.3-.3 1.9-.1.3-.1.6-.1 1 0 .3-.1.7-.1.9 0 .2 0 .6-.1.7.1-.1 0 0 0 0zM18 51.2c.1 0 .4 0 .5.1v.1h.1c.1.1.1.2.2.2.2.1.5.1.7.3l.1.2-.6.1s-.4-.3-.4-.4l-.6-.6c0 .1-.1.1 0 0zm2.3-34.4c0 .1-.3-.5-.3-.7 0-.3.2 0 .3-.2 0-.1-.1-.1 0-.2.1 0 .2-.2.3-.2.1 0 .2.2.1.4s-.4.7-.4.9zm-.2.5v-.1c0-.1-.1-.2-.1-.3 0 0 .2.2.2.3 0 .1-.1.4-.1.1zm-.8-3.5c-.2-1 0-1.9.3-2.5.1-.1.1 0 .1 0 0 .1.1.2.2.2.3.3.6.6.8.9.3.4.3 1 .4 1.5 0 .1.1.4.1.5 0 .1-.1 0-.1 0-.2.1-.1.5-.1.7-.1-.1-.2-.6-.2-.8 0-.6.1-1.3-.2-1.9-.1-.1-.3-.4-.4-.5 0 0-.3-.3-.3-.2-.1 0 .1.3.1.4.1.2.1.4.2.5 0 .1.1.2.1.3 0 .2-.1.9-.1.9s-.1-.1-.1-.2c-.2-.3-.3-.5-.4-.7.1.8.1 1.5.6 1.9.1.1.3.2.3.2 0 .1-.2.2-.2.2l-.1-.2c-.6-.2-.9-.7-1-1.2zm3.2 4.3c-.3 0-.7-.1-1-.2-.2-.1-.4-.3-.5-.3-.1-.1-.1-.4-.2-.5V17v.1c.1.1.2.2.3.2.5.3.9.7 1.4.8zm-.7-2.4c.1-.1.2-.1.3-.2h.4s.3.1.3.2c.2.2-.1 0-.2 0-.3 0-.6.1-.8.2l-.2.1c.1 0-.1-.1-.1-.1.1 0 .3-.1.3-.2zm.2-1.2c.2 0 .5-.1.8-.1.4 0 .7.2.9.4l.2.3s-.3-.1-.2-.1c-.5-.2-1.1-.4-1.8-.4 0 0-.3.1-.2 0-.1 0 .2 0 .3-.1zm1-.8c0-.1 0-.4.1-.5.1-.2.2-.4.2-.6.1-.2.1-.5.2-.7.1-.3.3-.5.3-.8l.2.2c.1.1 0 .3.1.4 0 .3-.1.8-.3 1.2-.2.3-.2.5-.3.8-.1.2-.3.6-.5.4-.2-.1-.1-.3 0-.4zm-1.1 2.7c.1.1.1.3.3.3.3.1.5-.1.4-.4 0-.1 0 0 .1 0 .2 0 .2.4.1.5-.2.2-.5.2-.7 0-.2-.1-.4-.4-.2-.4zm.5.1c0 .1-.1.1-.1.1-.1 0-.1 0-.1-.1s.1-.1.1-.1.1 0 .1.1zm-.5-.3s.1-.2.2-.2c.2-.1.3-.1.4-.1.1 0 .3 0 .4.1.1.2-.2 0-.3 0-.1.1-.7.3-.7.2zm2.5.4c.2.1.4.4.7.6.2.2.5.4.6.5.1.1 0 .1.1.1l.1.1c.2.1.4.1.5.2 0 0 .1.3 0 .3l-.4-.2h-.1c-.2 0-.2-.2-.3-.2-.1 0-.3 0-.3.1-.2.1 0 .5.1.5.3.2.5 0 .6.4 0 .1.1.3.1.4.1.1-.5.4-.6.5-.2.1-.5.1-.8 0-.2-.1-.4-.3-.7-.2-.1 0-.1.2-.2.3-.1.1-.6 0-.7-.1-.4 0-.8 0-1.2-.1-.4-.1-.8-.4-1-.6-.2-.2-.3-.5-.3-.7 0-.2-.1-.6-.1-.8 0-.1.2.3.3.4.1.2.2.3.3.4.3.3.6.6 1 .9.4.3 1.3.3 1.8.2.1 0 .2 0 .1-.1s-.5-.3-.6-.5c0-.1.2 0 .4 0 .3.1.7.5 1 .6 0 0 .5.1.5 0s-.2-.1-.2-.1c-.1 0-.3-.2-.3-.2-.1-.1-.4-.4-.1-.3.2.1.2-.1.3-.1.1 0 .3.2.3 0 0-.1-.1-.1-.2-.1l-.4-.4c-.1-.1-.2-.3-.1-.4 0-.1.2 0 .3-.1.1-.1 0-.3 0-.4-.1-.5-1-.8-1.2-1.1 0 0-.2-.3-.1-.3.4 0 .6.3.8.5zm0-1.1c.3-.1.8.4.4.4 0 .1.1.2.1.3 0 .1-.1.1-.1.2s.3.2.4.3c.2.2.4.5.6.7 0 0 .2.3.1.2-.2-.1-.3-.3-.5-.4-.2-.2-.4-.5-.6-.7-.1-.2-.3-.3-.3-.4-.1-.1-.2-.5-.1-.6zm2.4 3.3s.1.1 0 0c.1.4-.2 1-.5 1.1-.3.1-.1-.1 0-.1.2-.2.4-.4.4-.7.1-.1.1-.2.1-.3zm1.8 12.9c.4-.2.7-.4 1.1-.7.1 0 .5.7.6.9 0 .1-.1.1-.3.1-.5 0-1.2 0-1.7-.1l.3-.2zm0-.6c.1-.5.3-1 .2-1.7v-.1c0-.1.1.2.1.1.1.2.2.4.4.6.1.1.3.5.3.6 0 .1-.4.3-.5.4-.1.1-.3.2-.4.3-.2.2-.1-.1-.1-.2zm5.3-5.1l.1-.1h.2l.3.4s-.2-.1-.1-.1h-.3l-.2.2c-.2.1 0-.3 0-.4zm.9-.1c0-.1.2-.2.3-.2.2 0 .3.1.4.3.1.1.1.5 0 .3s-.3-.3-.5-.3l-.2.1c-.1.1 0-.1 0-.2zm1 .4c0-.1.1-.1.1-.1h.1c.1 0 .3.5.1.4-.1-.1-.3-.1-.3-.3zm1.7-6.2c-.4-.3-1.1 0-1.5.1-2.7.8-5.3 1.9-7.2 3.4-.5.4-.9 1-1 1.6 0 .1-.1.5-.1.5-.1-.3-.2-.4-.3-.6-.2-.2-.3-.4-.4-.6-.3-.4-.7-.7-1-1-.3-.3-.4-.8-.6-1.2-.2-.4-.5-.9-.5-1.5 0-.1-.1-.5 0-.5.1-.1.2.1.3.1.2 0 .4 0 .5-.1.1 0 .3-.2.4-.2.1 0 .1.1.2.1.6 0 .9-.7.9-1.2 0-.2-.1-.4-.1-.5v-.2c0-.2-.3-.3-.5-.4-.4-.2-.7-.9-1.1-1.2-.1-.1-.4-.3-.2-.4.1-.1.4-.1.3-.2 0-.1-.2 0-.3 0v-.2c-.1-.2-.3-.5-.5-.6h-.3c-.1 0-.3-.3-.3-.3v-.9c.1-.6.5-1.4.4-2.2 0-.4-.3-1.1-.6-1.2h-.2c-.1.2-.2.5-.3.7-.4 1-.6 2-1.4 2.7-.1.1-.4.3-.4.2 0 0 0-.1-.1-.2-.1-.4-.1-.9-.2-1.3-.2-.6-.9-1.2-1.2-1.6-.1-.1-.1-.2-.2-.2-.2-.1-.5.2-.5.3-.2.5-.4 1.4-.3 2.1.1.6.2 1.1.4 1.5.1.1.4.4.4.6 0 .1-.1.1-.1.2-.1.7 0 1.5.1 2.3.1.4.1.8.2 1.2.1.4.2.7.3 1.1v.6c0 .6.2 1.2.2 1.8 0 .5-.1 1.1-.1 1.7-.1 1.1-.4 2.1-.4 3.2 0 .9.1 1.7.1 2.5 0 .4.1.8.1 1.1-.1.6-.3 1.2-.5 1.8-.4 1.2-.8 2.4-1.1 3.5-.2.6-.4 1.1-.7 1.7-.4 1-.7 2.4-1.1 3.4-.4 1.1-.8 2.2-1.1 3.4-.1.4-.2.7-.2 1.1 0 .5-.1.9-.1 1.4-.1.9 0 1.8.1 2.9 0 .5.2 1 .2 1.6.1 1.6.2 3.2.2 4.4 0 .4-.1.9 0 1.4v1.3c-.1 1.1.1 2.1-.1 3.1-.1.5-.1 1-.2 1.5-.2.8-.3 1.7-.7 2.4-1 1.7-3.4 2.1-5.5 2.5-.3.1-.7.1-1.1.1-1.1.1-2.2.1-3.4.2-1.2-.3-2.1-.1-3 .1-.3 0-.8.1-.8.3 0 .2.6.5.9.6.4.1.8.1 1.2.1 1.3-.1 2.6 0 3.7 0 2.4 0 5.1 0 7.2-.6.2-.1.5-.2.6-.3h.6c1.4-.1 2.6-.1 4-.1h.4c.2 0 .3.2.4.3.1 0 .3.1.5.1.8.1 1.5.1 2.4 0 1.3-.1 2.6.1 4 .2 1.1.1 2 .1 3.2.2.3 0 .6.1.9.1.4 0 .6-.1.8-.1h.8c.1 0 .1-.1.2-.1s.4 0 .6.1c.1 0 .2.1.3.1.1-.1-.2-.4-.3-.4 0 0-.2-.1-.1-.1s.2-.1.3-.1c.2-.1.8.1.8.1s-.2-.3-.3-.3c-.2-.1-.6-.1-.7-.2-.2-.1 0-.1.2-.1s.5.1.6 0c0-.1-.4-.3-.5-.3h-.1s-.1-.1-.2-.1c-.3-.1-.7-.4-1.1-.5-.4-.1-.9 0-1.3-.1s-.6-.2-1-.2c-.5 0-1 .1-1.5.1-.2 0-.4 0-.6-.1-.5 0-1-.1-1.5-.1-.6-.1-1.3-.1-1.8-.2 0 0-.6-.2-.6-.3 0-.1.3-.1.3-.1h.4c.5 0 1-.1 1.5-.1H28c1.1 0 2.6.2 3.8.3.3 0 .5.1.8 0 .1 0 .2-.1.3-.1.5-.1 1.2.3 1.7.2.2 0 .4-.2.6-.2.1 0 .5.1.6.1.1-.1-.3-.3-.3-.3-.3-.1 0-.1.2-.1.1 0 .1 0 .2-.1.2 0 .8.1.8 0v-.1c-.1-.1-.4-.3-.6-.3h-.2l-.1-.2s.2.1.3 0c0-.1-.1-.2-.2-.2-.3-.1-.4-.2-.7-.3-.3-.1-.7-.3-.9-.3-.3 0-.7.1-.9.1-.2 0-.6 0-.8-.1-.6-.1-1.2-.2-1.7-.2-1.5-.1-3.1-.4-4.4-.9-.6-.3-.6-1.2-.5-1.9.1-.9.3-2.1.3-3 0-.4 0-.8.1-1 .1-.2.1-.6.1-1 0-.3.1-.6.1-.9.2-1.2.2-2.5.6-3.6.2-.5.5-1 .7-1.5 0-.1.1-.2.1-.3 0-.1.1-.2.1-.3l.3-.9c.1-.3.1-.6.2-.9.1-1.4.1-3-.2-4.3-.2-.7-.4-1.5-.7-2.1-.1-.1-.2-.3-.3-.4 0-.2.1-.5.1-.6.2-2.1.1-4.1.4-6.2 0-.1.1-1 .1-1h1.7c.6-.1 1.4 0 1.9.2.3.1.4.5.8.6.3.1.3.1.4.3.3.4 1.1.5 1.3-.1.1-.3-.1-.6-.1-.9v-.2c0-.3-.6-.5-.7-.7l-.1-.2h.2c.3 0 .4.2.5.4 0 .1 0 .2.1.2 0 0 .1-.2.2-.2.1-.2 0-.5 0-.6 0-.1.1-.1.1-.2 0-.2-.1-.4-.2-.4-.1-.1-.3-.1-.4-.2-.1-.1-.1-.2-.1-.3-.1-.1-.3-.2-.4-.2h-.3v-.1c-.1-.1-.2-.2-.4-.2h-.2c-.1 0-.2-.3-.3-.5-.1-.2-.2-.3-.2-.5 0-.1-.2-.1-.1-.2l.3-.2c.1-.1.3-.1.4-.2.1 0 1-.4 1-.6 0-.2-.6.1-.7.1-.3.1-.5.2-.8.4 0 0-.3.2-.4.2 0 0-.1-.2-.1-.3 0-.1-.1-.2-.1-.3 0-.1-.2-.5-.2-.6l.2-.1c.4-.1.8-.3 1.1-.4.1 0 .3-.4.3-.4.1 0 .1.2.1.2.3.3.7 0 .9-.2l.3-.3.2.2h.2c.1.1-.1.3-.1.4.1.1.5-.3.5-.4 0 0 0-.2.1-.2l.3.3c0 .1-.2.3-.1.3.1.1.3-.1.3-.2.1-.1.2-.3.3-.3.1.1-.1.3-.1.3 0 .1-.2.2-.1.3.1.1.6-.2.7-.3.4-.2.9-.5.9-1 0-.2-.1-.4-.2-.4h-.3v-.3c0-.2-.2-.5-.5-.4-.1 0-.1.1-.2.1s-.2-.3-.2-.4c-.3-.2-.6-.2-.9 0-.1 0-.1.2-.2.2l-.1-.1c-.3-.2-.7 0-.8.4v.4c0 .1-.2.1-.3.1-.1.1-.1.2-.2.3-.1.1-.2.1-.3.2-.1.1-.1.2-.2.3-.1.1-.2.3-.3.4-.1.1-.4.2-.6.3-.1 0-.6.3-.7.2 0 0-.1-.2-.1-.3-.1-.3-.2-.7-.3-.9-.2-1 .3-1.8.8-2.2 1.3-1 2.7-1.9 4.3-2.7.5-.3 1.1-.5 1.5-.8 0-.1.7-.8.2-1.2zm53.6 48.8c-.1 0-.5-.2-.3-.2s.6.1 1 .1 2.1.2 2.4.3c-.6-.1-2.6-.1-3.1-.2zm-2.9-.3c-.2-.1-.6-.1-.8-.2-1.1-.4-2-.8-2.6-1.7-.4-.6-.4-.7-.4-.9h.1c.8 1.1 1.9 1.7 3.3 2.2 1 .3 1.9.3 2.6.7-.9 0-1.4.1-2.2-.1zm-2.8.2c-.5-.2-.8-.5-1.1-.8-.7-.6-1.2-1.4-1.6-2.4-1-2.7-1.1-6.2-1.5-9.3-.1-.7-.3-1.5-.4-2.3.1.2.3.5.3.7.2.7.4 1.6.6 2.5.1.3.1.6.1.9v.3c0 .2 0 .4.1.6.1.4.1 1 .1 1.5 0 .4.1.6.1 1 0 0 0 .2.1.3v-.1c-.1-.7-.1-1.3-.2-1.9v-.7c0-.4-.1-.9-.1-1.3-.1-1-.3-2-.3-3 0-.5.1 0 .2.2s.2.3.2.5v.5c.2 1.5.2 3.3.4 4.9.1.9.3 1.6.5 2.4.1.4.1.9.3 1.3l.3.9c.4.8.9 1.6 1.5 2.2l.2.2.2.2c.2.2.6.4 1 .6 1.1.5 2.4.7 3.8 1-1.9-.3-3.5-.2-4.8-.9zm-2.4-.6c-.8-.1-1.4-.1-2.3-.2h-.4c-.1 0 0-.2 0-.2 0-.1-.2-.5-.2-.5.1-.1.6 0 .6 0 .5 0 1.2.1 1.8.1h.6c.1 0 .3.3.4.5 0 .1.4.4.4.4-.1.1-.7-.1-.9-.1zm-3.1-1.9s-.1-.3-.1-.5c-.1-.5-.2-.9-.3-1.4-.1-.7-.2-1.3-.3-1.9-.1-1-.2-2.1-.3-3.3-.1-1-.2-2-.1-2.9 0-.5.3-.5.5-.8.1-.1.1-.4.2-.5 0 0 .2 0 .2-.1.1-.1.1-.2.2-.2.6.7.8 1.8 1 3 .2 1 .2 2 .3 3.1.2 1.9.6 3.9 1.3 5.5.1.2-.2.1-.3 0h-.3c-.5 0-1.4-.2-1.9-.1 0 .1 0 .2-.1.1zm-.3 1.9c0 .1-.1.2-.2.4-.1.1-.1.3-.2.4-.2.1-1.2 0-1.5 0-.5 0-.9-.1-1.3-.2.1 0 .5-.1.5-.2s-.9 0-1 0c-.6 0-1.2.1-1.9.2-.6.1-1.2.2-1.9.2h-1.4c-.6.1-1.1.2-1.7.2h-1.3c-.1 0-.6 0-.3-.1s.8-.2 1-.2h.8l.3-.1c0-.1-.2-.1-.3-.1-.3 0-.8 0-1.1-.1-.1 0 0-.1-.2-.1.2 0 .1 0 .2-.1 0 0 .7-.1.7-.2s-.3 0-.4-.1c-.2 0-.3-.1-.6-.2-.3 0 .3-.1.4-.1 1.6-.1 3.3-.1 5-.3.6-.1 1.2-.1 1.7-.2.6-.1 1.1-.4 1.4-.8 0-.1.2-.4.3-.2 0 .1-.2.5-.3.7-.1.2-.5.4-.8.5.3 0 .8.1 1.1 0 .2 0 .3-.1.4-.3.1-.3-.1-.9-.2-1.2v-.2c-.1-.1-.2 0-.3-.1v-.3c-.2-2.1-.6-3.9-.8-6.1-.1-.9-.3-1.9-.4-2.8-.1-.7-.2-1.3-.3-1.9-.1-.6-.4-1.1-.5-1.8-.2-.8-.5-1.8-.6-2.7 0-.4-.1-.7 0-1.1 0-.2-.1-.4-.1-.6v-1.7c.1-1.2.6-2.1 1.1-3 .6-.9.9-1.8 1.6-2.6.1-.2.5-.2.8-.3.3-.1.4-.1.8-.2.5-.1.9-.3 1.5-.3.1 0 .5 0 .1.1-.3 0-.7.1-.9.2-.4.1-.6.3-.9.4-.4.1-.8.2-1.1.5-.1.1-.3.4-.4.5-.3.3-.5.6-.7 1-.1.5-.1.9-.4 1.3-.2.4-.5.7-.6 1.1.3.8.3 1.1.3 1.4 0 .8.1 1.4.2 2.2 0 .4.1.6.1 1 0 .1-.1-.3-.1-.3-.3-.8-.5-1.7-.5-2.5v-.4c-.1 0-.1.2-.1.3 0 .4 0 .8.1 1.3 0 .5.1.9.2 1.3.2.6.2 1.3.5 1.9.2.4.5 1 .6 1.5l.2.5-.3-.4c-.2-.3-.3-.5-.5-.8-.1-.1-.2-.4-.2-.4-.1 0-.1.2-.1.2 0 .1.2.5.2.5.1.3.2.5.3.7.2.7.3 1.3.4 2 .1.7.3 1.4.3 2.3 0 .3 0 .9.1 1.1.1.2.2.2.2.4.1.4.1.8.1 1.2.1.6.2 1.2.2 1.8 0 .3.1.8.1 1.2 0 .3.1.4.2.6.1.3 0 .8.2.9.1.1.1-.1 0-.2-.1-.7-.2-1.4-.2-1.9-.1-1.3-.2-3-.2-4.5 0-.4-.1-.7-.1-1 0-1.2-.1-2.4-.4-3.5 0 0-.1-.3-.1-.4l.2.3c.1.1.1.2.1.4.2.7.4 1.1.5 1.8.1.7.2 1.4.2 2.1 0 1 .1 2.2.2 3.3.1.9.2 1.7.3 2.5.1.8.2 1.9.4 2.8.1.7.2 1.6-.3 1.9-.1 0-.3.2-.5.2-.1 0-.3 0-.3.1s.6.1.8.1c.4 0 .7 0 .8-.1.1-.1.2-.4.2-.6 0-1.2-.5-2.1-.7-3.2-.1-.7-.2-1.7-.2-2.5 0-.5-.2-1.2-.1-1.5.3 2.1.6 4.1 1.1 6 0 0 0 .3.2.2l-.1-.3c-.1-.6-.3-1.7-.4-2.3 0-.2 0-.3-.1-.5-.1-.4-.1-.6.2-.7h.2s.1.4.1.5c.2.9.2 1.9.4 2.8 0 .3.2.9 0 1.5zm-3.9-1.8h-.3c-.6-.1-1.2 0-2 0-1.3-.1-2.6 0-3.9.1-.6.1-1.4.2-2 .1l-.3-.1c-.1-.1.3-.3.4-.3-.4-.1-1-.2-1.5-.2.5-.2 1.2 0 1.7-.2-.5 0-1-.1-1.4-.1 2.3-.5 5.3-.4 7.3-1.4.4-.2.7-.5.7-1.1 0-.5 0-1-.1-1.6-.2-2.1-.5-4.2-.8-6.5-.1-.7-.2-1.4-.3-2-.1-.7-.5-1.2-.7-1.8-.1-.4-.3-.8-.5-1.2-.2-.7-.2-1.4-.3-2.2 0-1.1 0-2.2.2-3.2.1-.7.3-1.5.6-2 0 0 .1-.3.1-.2 0 0 .1.3.1.4.1 1 .3 2.1.6 2.9-.2-1.3-.3-2.6-.5-4-.2-1.6-.2-3.2-.3-4.9 0-.7-.1-1.5-.2-2.1 0-.1-.1-.7-.1-.7h.5c.1 0 .5-.1.5 0 .1.3.2.6.2.9.2 1.2-.1 2.9.9 3.3.1 0 .2 0 .3.1.1.1.2.2.2.4 0 .1-.1.3-.1.4 0 .6.8.4 1.2.3.2-.1.5-.1.4.2-.2.6-1.1 1.1-1.1 1.9 0 .1.1.5.2.5 0 0 .2-.3.3-.4.4-.5.7-.9 1.4-1.1.3-.1.6-.1.8-.2.7-.2 1.6-.3 2.3.1.2.1-.3 0-.4 0h-.5c-.5 0-.9.3-1.3.3s-.9.1-1.2.3c-.2.2-.5.5-.7.8-.2.3-.5.5-.6.8-.2.3-.3.5-.4.7-.4.6-.8 1.2-1.1 2 0 .1-.1.2-.1.2-.4 1-.4 2.7-.3 3.9.1 1.4.3 2.7.7 3.9.1.2.1.4.2.6.1.3.3.7.3 1.2 0 .8.1 1.5.2 2.3.2 2.1.2 4 .3 6 0 .4 0 1-.1 1.3v.2c0 .1.2.4.1.6-.1.1-.7.1-.9.1-1.2.1-2.3.2-3.3.4 1 .1 2.3-.3 3.4-.2.3 0 .6.2 1 .2.1 0 .3-.1.4-.2 0 0 0-.3.1-.3l.2.1c.1.1-.1.6-.2.7-.1.1-.3 0-.3 0zm-5.8-32.8c-.6 0-1.3.1-1.7.3-.2.1-.4.6-.7.5 0 0-.2-.1-.2-.2 0 0 .2-.3.3-.3.2-.2.4-.2.7-.4-.1 0 .1 0 .1-.1l-.7.1c-.3.1-.8.3-1.1.4-.2.1 0-.2.1-.3.3-.4.9-.6 1.4-.6-.3-.2-.6-.3-1.1-.4-.1 0-.6-.1-.6-.1s.2-.3.3-.3c.3-.1 1 .2 1.4.2-.1-.1-.2-.1-.4-.3-.1-.1-.4-.3-.3-.4.1 0 .3.1.4.1.3.1.4.2.7.2-.1 0-.4-.6-.4-.6.1-.1.6.3.7.4.2.2.4.3.7.4.4.1 1.1 0 1.6 0 .4 0 .8-.1 1.2-.2.8-.1 1.6-.4 2.4-.6.4-.1.7-.3 1-.3.2 0 .4 0 .5-.1.1-.1.1-.4.1-.5 0-.4-.1-.6-.1-1 0-.1-.1-.5-.2-.5 0 0-.2.4-.2.5v.3c0 .1-.3.3-.4.5v.2c0 .1-.1.1-.2.1-.2.2 0 .3-.4.4-.1 0-.3.1-.4.1-.1 0-.3.2-.4.1-.3-.1-.1-1-.2-1.3-.2.3-.5.6-.7.8-.1.1-.4.3-.4.2 0 0-.1-.4-.1-.5 0-1.5.3-2.8.9-3.8 0 0 .2-.3.1-.3s-.2.3-.3.4c-.4.6-.7 1.4-.9 2.2-.1.6-.2 1.2-.1 2 0 .2.1.4 0 .6 0 0-.2.3-.3.3 0 0-.1-.3-.1-.4-.2-.5-.4-1.1-.4-1.7 0-.5.1-1.2.3-1.6.4-1.1.8-2.3 1.5-3.2.3-.5.8-.9 1.2-1.3.5-.5.9-1.6 1.1-2.4 0-.1 0-.5.1-.3.1.4.1 1.1 0 1.5v.3c-.1.4-.2.6-.3.9 0 .2.1.4.2.6.1.4-.1.6-.2.9 0 .4.1.8.1 1.1 0 .2 0 .4-.1.5 0 .2.1.1.2 0 .1-.2.2-.4.3-.7.1-.4.3-.7.6-1 .1-.1.2-.3.2 0 0 .2-.1.5-.2.6v.3c0 .1-.2.2-.3.2-.1.1-.1.3-.1.4 0 .2.1.4 0 .6 0 .1-.2.1-.2.2-.1.1-.1.2-.2.3-.1.2 0 .4-.1.6 0 .2-.2.5-.1.7.1-.1.1-.4.2-.6 0-.1.4-.2.5-.2.1.1 0 .4 0 .5 0 .5.3 1 .7 1.1.2.1.4.1.5.2.1.2.2.7.1.9-.1.2-.4.6-.5.7h-.1c-.3.1-.6.4-1 .5-.5.2-1.3.2-1.9.3-.1 0-.1.1-.2.1-.2 0-.4.1-.7.2-.3.1-.8.1-1.1.2-.4.1-.9.3-1.3.4 1.1 0 2.4-.2 3.5-.3.3 0 .6-.1.8-.1.3 0 .6-.1 1-.1h.9c.1 0 .2-.1.2-.1h.2c.7-.1.8-.8.8-1.6 0-.4-.1-.7 0-1 .1-.2.3-.4.4-.7l.3-.9c-.1.9-.2 1.7-.3 2.6-.1.8 0 1.7-.7 2-.3.1-.6 0-.9 0-.8 0-1.5.1-2.3.2-.7 0-1.4.1-2.2.2-.6.3-1.6.2-2.5.2zm-1-2.8c.6-1.3 1.2-2.6 1.3-4.1 0-.6-.2-1.3-.5-1.8-.1-.2-.4-.5-.6-.6-.3-.2-.5-.4-.7-.6-.4-.3-.8-.5-1.2-.8-.1-.1-.5-.4-.6-.5 0 0 .2.1.3.1.6.3 1.1.6 1.7.9.6.3 1.2.8 1.6 1.2.5.6.7 1.5.6 2.4-.1.8-.5 1.7-.8 2.4-.3.6-.7 1.3-1 1.8 0 0-.2.2-.2.1-.2 0 0-.4.1-.5zm-2.8-8.5c-.4-.2-.7-.4-1.2-.7.3.1.6.2 1 .4.3.1.3.2.5.3l.2.2c0 .1-.4-.2-.5-.2zm5.5 9.6c-.5.1-1.2.1-1.7.1-.2 0-.3 0-.3-.1.1-.2.5-.9.6-.9.3.3.7.4 1.1.7.1 0 .4.2.3.2zm-.4-2.6v.1c0 .7.1 1.2.2 1.7 0 .1.1.4 0 .3-.1-.1-.3-.3-.4-.3-.1-.1-.5-.3-.5-.4 0-.1.3-.5.3-.6.1-.2.3-.4.4-.6-.1 0-.1-.2 0-.2zm3.9-9.3c-.2.1-.6.1-.8 0-.1-.1-.6-.4-.6-.5.1-.1.1-.3.1-.4.1-.4.3-.2.6-.4.1-.1.3-.4.1-.5-.1 0-.3-.1-.3-.1-.1 0-.2.2-.3.2h-.1l-.4.2c-.1-.1 0-.3 0-.3.1-.1.3-.1.5-.2.1 0 .1-.1.1-.1.1 0 .1 0 .1-.1.1-.2.4-.3.6-.5.3-.2.4-.5.7-.6.2-.1.3-.4.7-.4l-.1.3c-.2.4-1.1.6-1.2 1.1v.4c.1.1.2.1.3.1.1.1 0 .3-.1.4l-.4.4s-.2 0-.2.1c0 .2.3 0 .3 0 .2 0 .1.2.3.1.2-.1-.1.3-.1.3s-.2.2-.3.2c-.1 0-.3 0-.2.1 0 .1.5 0 .5 0 .3-.1.6-.6 1-.6.2 0 .4-.1.4 0-.1.2-.5.3-.6.5-.1.1 0 .1.1.1.6.1 1.5.1 1.8-.2.4-.3.7-.5 1-.9.1-.1.2-.3.3-.4 0-.1.3-.5.3-.4 0 .2-.1.6-.1.8 0 .2-.2.5-.3.7-.2.2-.6.5-1 .6h-1.1c-.1 0-.6.1-.7.1-.1 0-.1-.2-.2-.3-.3-.2-.5.1-.7.2zm-1.4-.1c-.3-.1-.6-.7-.5-1 0 0 0-.1.1-.1s0 .2 0 .2c.1.3.2.6.4.7 0 .1.2.3 0 .2zm.5-2.4c.2-.2.3-.5.6-.7.1-.1.4-.2.4-.3 0-.1-.1-.1-.1-.2s.2-.2.1-.3c-.3-.1.1-.6.4-.4.1 0 .1.4-.1.6-.1.1-.2.2-.3.4-.2.3-.4.5-.6.7-.1.1-.3.3-.5.4-.1.1.1-.2.1-.2zm1.7-5.8c0-.1 0-.3.1-.4 0-.1.2-.3.2-.2.1.3.2.5.3.8.1.2.1.5.2.7.1.2.2.4.2.6 0 .1 0 .4.1.5 0 .1.2.2.1.4-.2.2-.5-.2-.5-.4-.1-.3-.1-.5-.3-.8-.3-.4-.4-.9-.4-1.2zm2.1 2.8c.1 0 .3 0 .3.1s-.2 0-.2 0c-.7 0-1.4.2-1.8.4l-.2.1s.2-.2.2-.3c.2-.2.6-.4.9-.4.3 0 .7.1.8.1zm.4 1.4c0-.1-.2.1-.1.1l-.2-.1c-.2-.1-.4-.2-.8-.2-.1 0-.4.2-.2 0 .1-.1.3-.2.3-.2h.4c.2 0 .2.1.3.2.1.1.3.2.3.2zm-1 .3c.1.1.1 0 0 0-.1.4.2.5.5.5.2 0 .2-.3.2-.3h.1c.2 0-.1.3-.1.4-.2.2-.6.2-.7 0-.2-.2-.3-.6 0-.6zm.5.3c0 .1-.1.1-.1.1-.1 0-.1 0-.1-.1s.1-.1.1-.1c.1 0 .1 0 .1.1zm-.4-.4c-.1 0-.4.1-.3 0 .1-.1.3-.1.4-.1.1 0 .2 0 .4.1.1 0 .2.1.2.2-.1 0-.7-.2-.7-.2zm1.3 1.2c.1-.1.2-.1.3-.2V17v.1c0 .1-.1.4-.2.5-.1.1-.3.3-.5.3-.3.1-.7.2-1 .2.6-.1 1-.5 1.4-.8zm.1-3.4c.1-.4.1-1.1.4-1.5.2-.3.6-.6.8-.9 0-.1.1-.2.2-.2 0 0 .1-.1.1 0 .3.6.6 1.5.3 2.5-.1.5-.4 1-.7 1.5l-.1.2s-.3-.1-.2-.2c0 0 .2-.2.3-.2.4-.4.5-1.1.6-1.9-.2.2-.3.4-.4.7l-.1.2c-.1 0-.1-.8-.1-.9 0-.1.1-.2.1-.3 0-.2.1-.3.2-.5 0-.1.2-.3.1-.4l-.3.2c-.1.1-.3.4-.4.5-.3.6-.2 1.3-.2 1.9 0 .2 0 .6-.2.8 0-.3 0-.6-.1-.7h-.1c-.3-.4-.2-.7-.2-.8zm1 3.2v.1c0 .3-.2 0-.2-.1s.2-.3.2-.3c.2.1 0 .3 0 .3zm-.2-.3c0-.2-.3-.7-.4-.9-.1-.2 0-.4.1-.4s.2.2.3.2c.1 0 0 .1 0 .2 0 .2.3 0 .3.2s-.3.8-.3.7zm-1 37c-.1-.1-.1-.5 0-.6h.4c.1 0 .3-.1.3-.2.1-.1.2-.3.3-.4.3-.1.5.2.8.1-.3.3-.6.6-.9 1-.1.1-.2.4-.3.4-.1.2-.5-.1-.6-.3zm-.2 5.3c0 .2 0 .7-.1.7h-.1c-.1-.1-.1-.5-.1-.7 0-.3-.1-.6-.1-.9 0-.3 0-.6-.1-1-.1-.6-.3-1.3-.3-1.9 0-.5.3-.9.8-.8.1 0 .2 0 .3.1.1 0 .4.1.3.1-.2.2-.5.7-.6.9 0 .1-.1.2-.1.2 0 .1-.1.4-.1.6 0 .9.1 1.8.2 2.7zm3.5-6.2v1.2c0 .1 0 .6-.1.4-.1-.2-.2-.4-.2-.5-.1-.3 0-.6.1-1 0-.3 0-.7.1-.9 0 .2.1.6.1.8zm-1.6-.9c.2-.2.5-.2.7-.3.1-.1.1-.2.2-.2h.1v-.1c.1-.1.4-.1.5-.1.1 0 .1.1 0 .1l-.6.6-.4.4-.6-.1c0-.2.1-.3.1-.3zM66.2 26.5l-.2-.2h-.3l-.1.1s.2-.4.3-.4h.2l.1.1c-.1 0 .1.4 0 .4zm-.9-.3l-.2-.1c-.3-.1-.4.1-.6.3-.1.3-.1-.1 0-.3.1-.2.2-.3.4-.3.1 0 .3.1.3.2l.1.2zm-1.4.3c-.2.1 0-.3.1-.4h.1s.1 0 .1.1c0 .3-.2.3-.3.3zm34 42.5c-.9-.2-1.8-.4-2.7-.4-1.2-.1-2.3-.1-3.4-.2-.4 0-.7 0-1.1-.1-2.2-.4-4.5-.8-5.5-2.5-.4-.7-.6-1.6-.7-2.4-.1-.5-.1-1-.2-1.5-.1-1 0-2.1-.1-3.1v-2.7c0-1.2.1-2.9.2-4.4 0-.5.2-1.1.2-1.6.1-1.1.1-2 .1-2.9 0-.5-.1-.9-.1-1.4 0-.3-.1-.7-.2-1.1-.2-1.2-.6-2.2-1.1-3.4-.4-1.1-.7-2.4-1.1-3.4-.2-.6-.5-1.1-.7-1.7-.4-1.2-.7-2.3-1.1-3.5-.2-.6-.5-1.2-.5-1.8 0-.3.1-.7.1-1.1 0-.8.1-1.6.1-2.5 0-1.2-.3-2.2-.4-3.2-.1-.5-.2-1.1-.1-1.7 0-.6.2-1.1.2-1.8V20c0-.4.2-.7.3-1.1.1-.4.2-.8.2-1.2.1-.8.2-1.6.1-2.3 0 0-.1-.1-.1-.2s.3-.4.4-.6c.2-.4.4-.9.4-1.5.1-.7-.1-1.6-.3-2.1-.1-.1-.3-.4-.5-.3-.1 0-.1.2-.2.2-.4.5-1 1-1.2 1.6-.1.4-.1.9-.2 1.3 0 .1-.1.2-.1.2-.1 0-.3-.2-.4-.2-.8-.6-1-1.7-1.4-2.7-.1-.3-.2-.5-.3-.7h-.2c-.3.1-.6.8-.6 1.2-.1.8.3 1.6.4 2.2v.9s-.2.3-.3.3h-.3c-.2.1-.5.4-.5.6v.2c-.1.1-.2 0-.3 0-.1.1.2.1.3.2.2.2-.1.3-.2.4-.3.3-.7.9-1.1 1.2-.2.1-.4.2-.5.4v.2c0 .2-.1.4-.1.5 0 .5.3 1.2.9 1.2.1 0 .1-.1.2-.1s.2.1.4.2c.2 0 .3.1.5.1.1 0 .2-.1.3-.1.1 0 0 .4 0 .5-.1.6-.3 1-.5 1.5-.2.4-.3.8-.6 1.2-.3.4-.7.6-1 1-.1.2-.3.4-.4.6-.1.2-.2.3-.3.6 0 .1-.1-.3-.1-.5-.1-.6-.5-1.3-1-1.6-2-1.5-4.5-2.6-7.2-3.4-.4-.1-1.2-.4-1.5-.1-.6.4.2 1.1.4 1.3.5.3 1 .6 1.5.8 1.6.8 3 1.7 4.3 2.7.5.4 1 1.2.8 2.2l-.3.9c0 .1-.1.3-.1.3-.1 0-.6-.2-.7-.2-.3-.1-.5-.2-.6-.3-.1-.1-.2-.3-.3-.4-.1-.1-.2-.2-.2-.3-.1-.1-.2-.1-.3-.2-.1-.1-.1-.2-.2-.3-.1 0-.3-.1-.3-.1-.1-.1 0-.3 0-.4-.1-.3-.5-.6-.8-.4 0 0-.2.1-.1.1 0 0-.1-.2-.2-.2-.2-.2-.6-.3-.9 0-.1.1-.2.4-.2.4-.1 0-.1-.1-.2-.1-.3 0-.5.2-.5.4v.3s-.3-.1-.3 0c-.5.3-.6.5-.6.7 0 .5.5.8.9 1 .1 0 .6.4.7.3 0 0-.1-.2-.1-.3l-.1-.3c.1 0 .2.2.3.3.1.1.3.2.3.2.1-.1-.1-.2-.1-.3l.3-.3s0 .2.1.2c0 .1.4.5.5.4.1-.1-.1-.3-.1-.4h.2c.1 0 .2-.2.2-.2.1 0 .3.3.3.3.2.2.6.5.9.2l.1-.2c.1 0 .3.3.3.4.3.2.7.3 1.1.4l.2.1c0 .1-.2.5-.2.6 0 .1-.1.2-.1.3l-.1.3c-.1 0-.3-.2-.4-.2-.3-.2-.4-.2-.8-.4-.1 0-.7-.3-.7-.1 0 .1.9.5 1 .6.1 0 .2.1.4.2.1 0 .3.2.3.2 0 .1-.1.2-.1.2-.1.2-.1.3-.2.5-.1.1-.2.4-.3.5h-.2c-.1 0-.3.1-.4.2v.1h-.3c-.1 0-.3.1-.4.2-.1.1-.1.2-.1.3-.1.1-.3.1-.4.2-.1.1-.2.2-.2.4 0 .1.1.2.1.2 0 .1-.1.4 0 .6 0 0 .1.2.2.2s.1-.2.1-.2c.1-.2.2-.5.5-.4h.2l-.1.2c-.1.2-.7.4-.7.7v.2c0 .3-.2.5-.1.9.2.5 1 .5 1.3.1.1-.2.1-.2.4-.3.3-.1.5-.5.8-.6.5-.2 1.3-.3 1.9-.2.5.1 1 0 1.4 0h.3c.1 0 .1.9.1 1 .3 2.1.2 4.1.4 6.2 0 .2.1.5.1.6 0 .1-.2.3-.3.4-.3.6-.5 1.4-.7 2.1-.3 1.3-.3 2.9-.2 4.3 0 .3.1.6.2.9l.3.9c0 .1.1.2.1.3 0 .1.1.2.1.3.2.5.5 1 .7 1.5.4 1.1.4 2.4.6 3.6 0 .3.1.6.1.9 0 .3.1.7.1 1 .1.3.1.6.1 1 .1 1 .2 2.1.3 3 .1.7.1 1.6-.5 1.9-1.2.6-2.9.8-4.4.9-.5 0-1.1.1-1.7.2-.2.1-.6.1-.8.1-.2 0-.5-.1-.9-.1-.3 0-.7.2-.9.3-.2.1-.4.2-.7.3 0-.1-.2 0-.2.1s.2-.1.3 0l-.1.2H64c-.2 0-.4.2-.6.3-.1.1-.1.1 0 .1 0 .1.6-.1.8 0 .1 0 .2.1.2.1.2 0 .5-.1.2.1-.1 0-.4.2-.3.3.1.1.5-.1.6-.1.1 0 .4.2.6.2.5.1 1.2-.2 1.7-.2.1 0 .2.1.3.1h.8c1.2-.1 2.7-.3 3.8-.3h1.5c.5 0 1 .1 1.5.1h.4c.1 0 .4 0 .3.1 0 .1-.6.3-.6.3-.5.1-1.1.2-1.8.2-.5.1-1 .1-1.5.1-.2 0-.4.1-.6.1-.5 0-1-.2-1.5-.1-.4 0-.6.1-1 .2s-.9 0-1.3.1c-.4 0-.8.3-1.1.5-.1 0-.1.1-.2.1h-.1c-.1 0-.5.2-.5.3 0 .1.4 0 .6 0 .1 0 .4 0 .2.1-.1.1-.5.1-.7.2-.1 0-.3.3-.3.3s.6-.1.8-.1c.1 0 .2.1.3.1.1 0-.1.1-.1.1-.1.1-.4.4-.3.4.1 0 .2-.1.3-.1.2 0 .5-.1.6-.1.1 0 .1.1.2.1.2.1.5 0 .8 0 .2 0 .4.1.8.1.3 0 .6-.1.9-.1 1.1-.1 2-.1 3.2-.2 1.4-.1 2.7-.3 4-.2.8.1 1.6.1 2.4 0 .2 0 .4-.1.5-.1.1-.1.2-.2.4-.3h.4c1.4 0 2.6 0 4 .1h.6c.2 0 .4.2.6.3 2 .6 4.8.7 7.2.6 1.1 0 2.4-.1 3.7-.1.4 0 .8 0 1.2-.1.3-.1.9-.4.9-.6-.1-.1-.6-.2-.9-.2z" transform="translate(0 .178)"/><path class="st1" d="M24.2 15.3c.2 0 .8 0 .8.4s0 .8-.5.6c-.4-.1-.5-.9-.3-1m51.4 0c-.2 0-.8 0-.8.4s0 .8.5.6c.5-.1.5-.9.3-1m-21.1-2.4c-.2-.2-1 1.1-.9 2.3-.2-.9-2.4-.6-1.3 1.3.4.4-.1-1.2.6-.9.7.2.4.6.2.6-.1 0-.4.3.1.6.2.2-1.2.8-2 .3-.9-.6-1.1-1.2-.9-1.3.2-.1.7.3 1.2.8 0-.3.1-1.2 0-2.2 0-.3-1.3.9-1.3.7 0-.7 1.1-1.5 1.1-1.5-.1-.1-.3.1-.3-.1 0-.5.1-1.4.1-1.4.1-.1 1-1 2.3-.7 1.3.2 1.1.2 1.2.2.1-.1 1.8-.9 3-.4.2.1.8.3.8.5s0 1.4-.5 2.7c-.1.2-.3.1-.8-.1 0 0 .7 1.5.7 1.6 0 .3-.2.2-.3.1-.2-.2-.5-.6-.8-1.1-.1-.1-.5 1.9-.7 2.2-.1.2 1.3-.5 1.4-.4.3.1-.6 1.3-1.7 1-1.4-.3-1.3-.9-1.1-.9.2 0 .5-.4.1-.6-.3-.1 0-.7.4-.6.7.2 0 1.3.2 1.2 1.8-1.2 0-2.6-.7-1.8.3-.2.6-1.2-.1-2.1m-9 0c.2-.2 1 1.1.9 2.3.2-.9 2.4-.6 1.3 1.3-.4.4.1-1.2-.6-.9-.7.2-.4.6-.2.6.1 0 .4.3-.1.6-.2.2 1.2.8 2 .3.9-.6 1.1-1.2.9-1.3-.2-.1-.7.3-1.2.8 0-.3-.1-1.2 0-2.2 0-.3 1.3.9 1.3.7 0-.7-1.1-1.5-1.1-1.5.1-.1.3.1.3-.1 0-.5-.1-1.4-.1-1.4-.1-.1-1-1-2.3-.7-1.3.2-1.1.2-1.2.2-.1-.1-1.8-.9-3.2-.4-.2.1-.5.2-.6.5 0 .2 0 1.4.5 2.7.1.2.3.1.8-.1 0 0-.7 1.5-.7 1.6 0 .3.2.2.3.1.2-.2.5-.6.8-1.1.1-.1.5 1.9.7 2.2.1.2-1.3-.5-1.4-.4-.3.1.6 1.3 1.7 1 1.4-.3 1.3-.9 1.1-.9-.2 0-.5-.4-.1-.6.3-.1 0-.7-.4-.6-.7.2 0 1.3-.2 1.2-1.8-1.2 0-2.6.7-1.8-.3-.2-.6-1.2.1-2.1m1.6 5.7c0 .3-.4.6-.9.6s-.9-.2-.9-.5.4-.6.9-.6.9.3.9.5m-5 .4l.4.6 1.1-.8-1.3-.4-.2.6" transform="translate(0 .178)"/><path class="st6" d="M43.6 19l-1.4.2 1.4-.2zm1.5-2.6c.1-.5-.4-.6-.5-.5-.5.2 0 1.2 0 1.2-1.9-.9-.1-2.9.7-1.6.1.1-.7-.9.2-2.6 1.2 1.4.7 2.6.8 2.5.4-1.4 2.7.1 1.1 1.4 0 0 .3-1-.3-1.1-.2 0-.6.1-.4.6l-1.6.1zm-.2.3c0 .2.2.3.4.3l1.4-.2c.2 0 .3-.2.3-.3 0-.2-.2-.3-.4-.3l-1.4.2c-.2 0-.4.1-.3.3zm-3-2.3c-1.8-3.9.8-4.8 1.8-4.8 2.1.1 2.1 1.3 4.7 1.4" transform="translate(0 .178)"/><path class="st6" d="M48.1 9.9c-2.2 0-1.8-1.2-4.3-1.2-1.6 0-4.9 1-2.7 6.1m8.5-1.2s-.1-1.2-.2-2.1c-.1-.9-.6-2.1-.6-2.1H48s.5 1.1.8 2.1c.2.8.2 2.1.2 2.1m-6.7 3.2c.2.6.9 1 1.7 1 .7 0 1.2-.4 1.5-.9m1.1-.1c.3.4.9.6 1.5.5.9-.1 1.6-.8 1.5-1.6" transform="translate(0 .178)"/><path class="st6" d="M42.1 16.1c-.1-.5.6-1.8.6-1.8l-1.8.5m1.2 1.3c.4-.1 1-1.2 1-1.2l.7 2.3s-1.1-.6-1.5-.5m7.7.7l-.3-.8c-.1.4-.7.8-1.5 1-.9.2-1.7 0-1.9-.5l-.2.7-.4-.6c-.1.4-.8.7-1.6.8-.8.1-1.5-.1-1.7-.5l-.2.7m3.1.5c0 .3.4.5.9.4.5 0 .9-.3.9-.5 0-.3-.4-.5-.9-.4-.5 0-.9.2-.9.5zm-3.2.3l.4.6 1-.8-1.2-.4-.2.6z" transform="translate(0 .178)"/><path class="st1" d="M42.1 2.8c.1-.3.4-.5.3-.9 0-.2 0-.4-.1-.4 0-.1 0-.5.2-.6.1-.1.1-.4.2-.3 0 .1.2.4.2.5.1.3.1.7-.1 1-.1.1-.4.6-.4.8m-1.5.1c0-.1.3-.3.3-.8 0-.2-.1-.7-.1-.9 0-.2-.1-.6 0-.9 0-.1.2-.3.2-.1 0 .1.2.7.3.9.2.3.1.7 0 .9s-.3.5-.4 1m-1.6.5c0-.2.1-1.6-.1-2-.1-.1-.6-.7-.6-.7 0-.1 0-.1-.1-.2s.1-.1.2-.1.9.1 1.1.8c.1.1 0 .7 0 .9-.1.1 0 .8-.1 1-.1.1 0 .3-.1.4m-1.8 1.1c-.1.3 0-1.4-.1-1.8-.1-.5-.1-.6-.2-.7-.1-.2 0-.3-.3-.5-.2-.1-.2-.3-.4-.3-.1 0 .2-.1.3 0 .1 0 .8 0 1.1.8v1.2c0 .1-.1 1.1-.1 1.2 0-.1-.2-.1-.3.1m-.6.8c0-.1-.3-1.1-.3-1.3 0-.6-.2-2.4-1.7-2.2-.4 0-.7.4-.5.4.1.1.1-.3.7 0 .2.1.9 1 1.1 1.8 0 .1.3 1.1.3 1.3m-.8 2.6c-.1-.2-.2-.5-.4-1-.1-.4-.4-1-.6-1.2-.4-.3-.7-1.5-1.3-1.6-.1 0-.7.1-.5-.1 0 0 .5-.5 1.5 0 .1.1 1.2 1.1 1.3 2.3 0 .1.1.9.4 1m6.8-4.9c.6-.4.6-.9.6-1.1 0-.2-.1-.5-.2-.7l-.2.2c-.1.1-.1.5-.1.9 0 .1-.3.4-.4.6" transform="translate(0 .178)"/><path class="st1" d="M42.2 21.4l-.3-.3c-1.3-1.3-3.1-5-3.6-5.1-.7-.2-.7-.5-.7-.6s0-.2-.1-.2c0-.1.4-.4.4-.4.2.1.3 0 .2-.1-.3-.4-.9-2.2-1.1-2.3-.7-.4-.6-.9-.5-1 0-.1.3-.2.4-.3.1-.1.1 0 .2.1 0 0 .2.2.2.1-.3-1.3-.1-2.2-.2-2.3-.7-.2-.7-.5-.7-.6 0-.1 0-.3.1-.3.1-.2.2-.2.3-.2.4-.1.5.2.5.2s.2.1.2 0c0-.2.1-.8.1-.9 0-.1-.1-.5-.1-.5-.3 0-.3-.5-.3-.5 0-.2 0-.2.1-.3 0 0 .2-.1.3-.1.3 0 .3.6.3.7 0 .1.1.1.1.1s.1.1.1 0c0-.2.3-.9.3-.9-.2-.4-.2-.8-.1-.9.1 0 .1-.1.2-.1s.1 0 .2.1c.1 0 .1.3.1.4 0 .1.1.1.1 0 .1-.2.6-.6.6-.7V4c0-.1.1-.1.1-.2s.4-.2.4 0v.5c.2.1.6-.3.7-.5.1-.1.1-.3.1-.6 0-.2.3-.2.5-.2.1 0 0 .4 0 .5-.1.1.3-.1.5-.1.1-.2.2-.4.2-.6 0-.1.3-.1.5-.1.1 0 0 .3-.1.4-.1.1.4-.1.6-.2.2-.1.2-.2.3-.4 0-.1.1-.2.4-.1.2.1 0 .3 0 .3 0 .1.5.1.6 0 .1-.1.2-.3.4-.2 0 .3-.3.5-.1.5 1 .1 1.2.5.8.3-.6-.2-2.1-.1-2.4 0-8.7 2.4-3.9 12.8-.3 16.8 0 0-.2 0-.3.2-.1.2-.4.6-.3.8.1.1.1.3.1.3" transform="translate(0 .178)"/><path class="st1" d="M32.6 17.4c0 .1.1.3.3.3h.1c-.2-.1-.4-.2-.4-.3zm2.1.4s-.1 0-.1-.1c.1 0 .2.1.3.1 0 0 .1 0 .2-.1-.2.1-.4.1-.4.1zm2.8-3.4c-.2 0-.9-.7-1.1-.9-.2-.1.3-.4.5-.4.5 0 .6.6.6.7v.6zm-.4-1.3c-.1-.1-.6 0-.7 0-.1 0-.5-.1-.8 0-.2.1-.6.4-.9 1.6 0 .1-.3.1-.8.8 0 0 0 .1-.1.1.2-.3.7-.8.7-.7 0 .5-.3 1-.3 1.1 0 .1-.1.2 0 .1.2-.1.6-.6 1.1-.7.1 0-.1.3-.2.3-.3.3-.5 1.3-.5 1.5 0 .8.5.6.5.6.3-.2.6-.7.6-1.6.1-1.5.5-2.6.6-2.5.3.2.8.9 1.2 1.5l.3-.3c0-.2-.2-1.5-.7-1.8zm-3.6 4.5c-.1 0-.2.1-.3.1.1 0 .2-.1.3-.1zm-.1-3.3s-.1 0 0 0c0 .1-.1.1-.1.2 0-.1 0-.1.1-.2zm-1.2.8c0-.1-.1-.1 0 0 0 .1.1.4.2.6-.2-.4-.2-.6-.2-.6zm1 .3v.5c-.1 0-.1-.3 0-.5zm0-.3v-.3.3zm1.9-5.8c-.1-.1.1-.6.4-.8h.2-.9s-.3-.2-.6.1c-.3.3-.8.8-.8 1.6 0 .2 0 .7-.2.4l-.1-.1c.2.3.3.6.4.7 0-.2.1-.8.1-.9 0-.1.2-.5.2-.4 0 .1.1.3.2.4.2.2.2.8.2.7 0-.2.4-.4.4-.5 0-.1.1-.4.2-.4 0 0 .1.5.1.7 0 .5-.3.7-.4.9-.1.4.4.2.3.3 0 0-.1.1-.2.1.1 0 .3-.1.3-.3.3-.6.2-2.2.2-2.5zm-.5 2.7c0 .1 0 0 0 0zm0 0h-.1.1zM36 8.7c.1.1.2.2.2.3 0 .1.4 1.7.3 1.6-.4-.2-1-.9-1.1-1 0 0 0-.1-.1-.1 0 .2.1.5.4 1 .1.2.6.7.7.8l.5-.2c0-.1-.3-1.7-.9-2.4zM33 12l.2.2c0-.1-.1-.2-.2-.2zm1 .1c-.3 0-.6 0-.7.1.3-.1.5-.1.7-.1zm8.1-9.3c.1-.3.4-.5.3-1v-.4c-.1-.3.2-1 .3-.9 0 .1.2.4.2.5.1.3 0 .7-.1 1-.1.1-.4.6-.4.8m-4.9 2.9c0-.1-.3-1.1-.3-1.3 0-.7-.2-2.4-1.7-2.3-.4 0-.7.4-.5.5.1.1.3-.3.7 0 1.1 1 1.4 3 1.4 3.3m-.8 2.3c-.1-.2-.2-.5-.4-.9-.1-.4-.4-1-.6-1.2-.4-.3-.7-1.5-1.3-1.6-.1 0-.7.1-.5-.1 0-.1.5-.6 1.5-.1.2.1 1.2 1.1 1.3 2.4 0 .1.1.9.4 1" transform="translate(0 .178)"/><path class="st6" d="M37.1 11.2c0-.1-.6-2.9-1.6-2.8h-.7s-.3-.2-.6.1-.8.8-.8 1.6c0 .2 0 .7-.2.4-.1-.1-.7-.7-.5-.3.2.3.2.5.2.7 0 .2 0 1 .4 1 .6 0 .7-.1 1.3-.1.1 0 .4 0 .5-.4.2-.5 0-2 0-2.3 0-.1.2 0 .2.1.1.1.1.5.5 1.1.1.2.7.9.8 1m1.3 3.5c-.1-.1-.3-1.4-.8-1.7-.1-.1-.6 0-.7 0-.1 0-.5-.1-.8 0-.2.1-.6.4-.9 1.6 0 .1-.3.1-.8.8 0 .1-.1.3-.2-.1 0-.1-.4-1.3-.4-1.2 0 0-.2.6-.2 1v.7c0 .2 0-.1-.6-.6-.1-.1-.5-.5-.4-.2.1.1.2.6.3.8.1.1.1.4.1.5-.1.4-.3 1.2.3 1.3.5.1.4-.1.9-.1.7 0 .6.2 1 .2.1 0 .8-.3.9-1.8.1-1.5.5-2.5.6-2.5.3.2.8 1 1.2 1.6m-2.2 2.4c-.4.2-.6-.1-.6-.5s.3-1.3.5-1.5c.5-.5.1-.3-.3-.1-.2.2-.7.7-.5.4.2-.3.4-.7.4-1.1m.3-2.9c-.2.2-.6 0-.4-.3.2-.3.5-.6.3-1.4-.1-.2-.2.2-.2.3-.1.2-.4.2-.4.6 0 0 0-.5-.2-.7-.1-.1-.2-.4-.2-.5 0-.2-.1.4-.2.5-.1.1-.1.6-.1.9 0 .1-.1-.5-.4-.8m2.4-1.9c-.1 0-.7.2-.5 1.2m1.1-.8c.2.4.4 1 .4 2.3m-1.3-1.8c.2.4.9 1.1 1.2 1.2m.4 2.5c-.4 0-.6.3-.8.9m1.3-.6c.2.5 0 1.4.2 1.6m-1.2-1.6c.3.2.9.9 1.1.9m-3-2.3v.2c0 .1.2.5.2.6-.1.1-.2.1-.2.1m-1.3-.9s-.1.1-.1.2 0 .5-.1.6c-.1.1-.2 0-.2 0m1.4-.8v.2c0 .1.1.3.1.5 0 .1 0 .2-.2.2m-.5-.8c.1.3.1.5 0 .7 0 .1-.1.2-.1.2m-.1-.9c.1.3 0 .5 0 .7 0 .1-.1.2-.2.2m.7-1s.1.3.1.4c0 .1.1.4 0 .5-.1.1 0 .5 0 .6.1.2.2 1-.1.9-.1-.1-.1-.2-.1-.3m-.5 3.5c0 .2-.1 1-.4.9m0-.9c0 .2-.1.8-.4.7m2-.6s-.1.8.3.9m-.7-1s-.1 1 .3 1m-.7-1.1s.1 1.1-.3 1.1m.6-1.1v.9c0 .1.3 1.5-.1 1.9-.1.1-.5.2-.3-.4" transform="translate(0 .178)"/><path class="st1" d="M43.5 2.7c.6-.4.6-.9.6-1.1 0-.2-.1-.5-.2-.7l-.2.2c-.1.1-.1.5-.1.9 0 .1-.3.4-.4.6" transform="translate(0 .178)"/><path class="st6" d="M50 17.4l-.3-.8c-.1.4-.7.8-1.5 1-.9.2-1.7 0-1.9-.5l-.2.7-.4-.6c-.1.4-.8.7-1.6.8-.8.1-1.5-.1-1.7-.5l-.2.7M40.5 15c.3-.3.3-.7.1-1-.3-.3-.7-.3-1-.1-.3.3-.3.7-.1 1 .3.3.7.3 1 .1zm0 0c.3-.3.3-.7.1-1-.3-.3-.7-.3-1-.1-.3.3-.3.7-.1 1 .3.3.7.3 1 .1zm-.4-1.5c.3-.3.3-.7.1-1-.3-.3-.7-.3-1-.1-.3.3-.3.7-.1 1 .3.3.7.3 1 .1zm0 0c.3-.3.3-.7.1-1-.3-.3-.7-.3-1-.1-.3.3-.3.7-.1 1 .3.3.7.3 1 .1zm0-1.6c.3-.3.3-.7.1-1-.3-.3-.7-.3-1-.1-.3.3-.3.7-.1 1 .2.3.7.3 1 .1zm0 0c.3-.3.3-.7.1-1-.3-.3-.7-.3-1-.1-.3.3-.3.7-.1 1 .2.3.7.3 1 .1zm.4-1.5c.3-.3.3-.7.1-1-.3-.3-.7-.3-1-.1-.3.3-.3.7-.1 1 .3.3.7.3 1 .1zm0 0c.3-.3.3-.7.1-1-.3-.3-.7-.3-1-.1-.3.3-.3.7-.1 1 .3.3.7.3 1 .1zm1.1-1.2c.3-.3.3-.7.1-1-.3-.3-.7-.3-1-.1-.3.3-.3.7-.1 1 .3.4.7.4 1 .1zm0 0c.3-.3.3-.7.1-1-.3-.3-.7-.3-1-.1-.3.3-.3.7-.1 1 .3.4.7.4 1 .1zm1.5-.6c.3-.3.3-.7.1-1-.3-.3-.7-.3-1-.1-.3.3-.3.7-.1 1 .2.4.7.4 1 .1zm0 0c.3-.3.3-.7.1-1-.3-.3-.7-.3-1-.1-.3.3-.3.7-.1 1 .2.4.7.4 1 .1zm1.6 0c.3-.3.3-.7.1-1-.3-.3-.7-.3-1-.1-.3.3-.3.7-.1 1 .2.3.7.3 1 .1zm0 0c.3-.3.3-.7.1-1-.3-.3-.7-.3-1-.1-.3.3-.3.7-.1 1 .2.3.7.3 1 .1zm1.5.3c.3-.3.3-.7.1-1-.3-.3-.7-.3-1-.1-.3.3-.3.7-.1 1 .2.3.7.4 1 .1zm0 0c.3-.3.3-.7.1-1-.3-.3-.7-.3-1-.1-.3.3-.3.7-.1 1 .2.3.7.4 1 .1zm1.4.7c.3-.3.3-.7.1-1-.3-.3-.7-.3-1-.1-.3.3-.3.7-.1 1 .3.3.7.4 1 .1zm0 0c.3-.3.3-.7.1-1-.3-.3-.7-.3-1-.1-.3.3-.3.7-.1 1 .3.3.7.4 1 .1z" transform="translate(0 .178)"/><path class="st1" d="M40 13.5c.2-.1.4-.7.4-.4.1.3.4 1 .1.8-.3-.2-.6-.3-.5-.4m-.3-1.5c.2-.1.6-.5.5-.3 0 .3.2 1-.1.8-.3-.3-.5-.5-.4-.5m.1-1.6c.2 0 .7-.1.7 0s-.2.7-.3.5c-.1-.1-.4-.5-.4-.5m.9-1.1c.2 0 .7.1.6.2-.1.1-.6.6-.6.5.1-.2 0-.7 0-.7m1.3-.9c.2 0 .4.4.6.3.2 0-.6.3-.8.4-.1.1.1-.7.2-.7m.9.1c.2-.1.4-.6.5-.5.1.2.5.5.2.5s-.8.1-.7 0m1.4.1c.2 0 .7-.6.7-.4 0 .2.3.6.1.6-.2-.1-1-.2-.8-.2m1.4.5c.2.1.9-.5.8-.3 0 .2.1.9-.1.9-.1-.2-.8-.7-.7-.6m7.9-.4c.3.2.8.3.6.4-.2.1-.9.6-.8.4s.2-.8.2-.8m1.2.1c.1-.2.1-.8.3-.6s.5.5.3.5c-.3.1-.6.2-.6.1m1.3-.1c.2-.1.5-.7.6-.4.1.2.4.5.2.5-.3-.1-.9-.1-.8-.1m1.2 0c.2 0 .7-.5.7-.2s.1.5-.1.5c-.2-.1-.7-.3-.6-.3m1.3.7c.2.1.7-.2.7 0-.1.2 0 .6-.2.5l-.5-.5m.7.9c.2.1.7.1.6.3-.1.1-.3.5-.4.4-.1-.1-.3-.7-.2-.7m.4 1.3c.2.1.7.3.4.4-.3.1-.5.4-.5.3.1-.2 0-.7.1-.7m-.2 1.4c.1.2.5.6.4.6s-.6.5-.6.2c0-.2.2-.8.2-.8" transform="translate(0 .178)"/><path class="st1" d="M.9 2.7c-.1-.3-.4-.5-.3-.9 0-.2 0-.4.1-.4C.7 1.3.7.9.6.8.4.7.4.4.4.5.4.6.2.9.2 1c-.2.3-.1.7 0 1 .1.1.4.6.4.8m1.6.1c0-.1-.3-.3-.3-.8 0-.1.1-.6.1-.8 0-.2.1-.6 0-.9 0-.1-.2-.4-.2-.2 0 .1-.1.7-.3.9-.2.3-.1.7-.1.9.1.2.3.5.4 1" transform="translate(56.964 .178)"/><path class="st1" d="M60.4 3.5c0-.2-.1-1.6.1-1.9.1-.1.6-.6.6-.7 0-.1 0-.1.1-.2s-.1-.1-.2-.1-.9.1-1.1.7c-.1.1 0 .7 0 .9.1.1 0 .8.1 1 .1.1.1.3.1.4m1.7 1.2c.1.3 0-1.4 0-1.8.1-.5.1-.6.2-.7.1-.2 0-.3.3-.5.2-.1.2-.3.4-.3.1 0-.2-.1-.3 0-.1 0-.8 0-1.1.9v1.2c0 .1.1 1 .1 1.2 0-.2.3-.2.4 0m.7.9c0-.1.3-1.1.3-1.3 0-.7.2-2.4 1.7-2.3.4 0 .7.4.5.5-.1.1-.1-.3-.7 0-.2.1-.9 1-1.1 1.8 0 .1-.3 1.2-.3 1.4m.6 2.4c.1-.2.2-.5.4-1 .1-.4.4-1 .6-1.2.4-.3.7-1.5 1.3-1.6.1 0 .7.1.5-.1-.1-.1-.6-.6-1.5-.1-.2.1-1.2 1.1-1.3 2.3 0 .1-.1.9-.4 1m-6.8-4.8c-.6-.4-.6-.9-.6-1.1 0-.2.1-.5.2-.7l.2.2c.1.1.1.5.1.9 0 .1.3.4.4.6M67 17.7s.1 0 0 0c.3 0 .4-.2.4-.3 0 .1-.2.2-.4.3zm-2.1 0c.1.1.2.1.2.1.2 0 .2 0 .3-.1 0 0-.1 0-.1.1 0 0-.2 0-.4-.1zm3-2.6c0-.1-.1-.1 0 0 0 0-.1.2-.2.5 0-.2.1-.4.2-.5zm-1.1 2.6c-.1 0-.1 0-.3-.1.1 0 .2.1.3.1zm0-2.6v-.3.3zm.1.8v-.5.5zm-.3-1.6c0 .1 0 .1.1.1 0 0 0-.1-.1-.1.1 0 0 0 0 0zm-3-.8c-.2.1-.8.8-1.1.9-.1 0 0-.5 0-.6 0-.2.1-.8.6-.7.1 0 .7.3.5.4zm1.7 1.2c-.2-1.2-.6-1.5-.9-1.6-.4-.2-.7-.1-.8 0h-.7c-.5.3-.7 1.6-.8 1.7l.3.3c.4-.6.9-1.3 1.2-1.5.1-.1.5 1 .6 2.5 0 1 .4 1.4.6 1.6 0 0 .5.2.5-.6 0-.2-.2-1.2-.5-1.5-.1-.1-.3-.3-.2-.3.4.1.9.6 1.1.7.1 0 0 0 0-.1 0 0-.3-.6-.3-1.1 0-.1.6.5.7.7 0 0 0-.1-.1-.1-.5-.6-.7-.6-.7-.7zm1.4-2.6c-.1 0-.4 0-.7-.1.2.1.4.1.7.1zm0 0zm-1.3-.1s0 .1 0 0zm0 0zm.8-2.1c0-.1.1.4.2.4 0 .1.2.7.1.9 0-.1.2-.4.4-.7l-.1.1c-.2.3-.2-.2-.2-.4 0-.9-.5-1.3-.8-1.6-.3-.3-.6-.1-.6-.1h-.9.2c.3.2.5.8.4.8 0 .3-.1 1.9 0 2.3.1.2.2.3.3.3-.1 0-.1-.1-.2-.1-.1-.1.4.2.3-.3 0-.2-.4-.4-.4-.9 0-.2.1-.7.1-.7.1 0 .2.3.2.4 0 .1.4.3.4.5 0 .1 0-.5.2-.7.4.1.4-.1.4-.2zm-2.7.7c-.1.1.3-1.6.3-1.6 0-.1.1-.2.2-.3-.6.6-.9 2.3-1 2.4l.5.3c.1-.1.5-.6.7-.8.3-.5.4-.9.4-1l-.1.1c.1.1-.6.8-1 .9z" transform="translate(0 .178)"/><path class="st1" d="M57.8 21.4l.3-.3c1.3-1.3 3.1-5 3.6-5.2.7-.2.7-.5.7-.6 0-.1 0-.2.1-.2 0-.1-.4-.4-.4-.4-.2.1-.3 0-.2-.1.3-.4.9-2.2 1.1-2.3.7-.4.6-.9.5-1 0-.1-.3-.2-.4-.3-.1-.1-.1 0-.2.1 0 0-.2.2-.2.1.3-1.3.1-2.2.2-2.3.7-.2.7-.5.7-.6 0-.1 0-.5-.4-.6-.4 0-.5.2-.5.2s-.2.1-.2 0c0-.2-.1-.8-.1-.9 0-.1.1-.5.1-.5.3 0 .3-.5.3-.5 0-.2 0-.2-.1-.3 0 0-.2-.1-.3-.1-.3 0-.3.6-.3.7 0 .1-.1.1-.1.1s-.1.1-.1 0c0-.2-.3-.9-.3-.9.2-.4.2-.5.2-.6 0-.1-.1-.5-.5-.3 0 .1-.1.4-.1.4 0 .1-.1.1-.1 0-.1-.2-.6-.6-.6-.7v-.7c0-.1-.4-.2-.5 0-.1.1 0 .5 0 .5-.2.1-.6-.3-.7-.5-.1-.1-.1-.3-.1-.6 0-.2-.3-.2-.5-.2-.1 0 0 .4 0 .5.1.1-.3-.1-.5-.1-.1 0-.2-.2-.2-.4 0-.1-.3-.1-.5-.1-.1 0 0 .3.1.4.1.1-.4-.1-.6-.2-.2-.1-.2-.2-.3-.4 0-.1-.1-.2-.4-.1-.2.1 0 .3 0 .3 0 .1-.5.1-.6 0-.1-.1-.2-.3-.4-.2 0 .3.3.5.1.5-1 .1-1.2.5-.8.3.6-.2 2.1-.1 2.4 0 8.8 2.5 3.9 13 .3 16.9l.1.1s.2 0 .3.2c.1.1.2.4.1.9" transform="translate(0 .178)"/><path class="st6" d="M63 11.3c0-.1.5-2.9 1.6-2.8h.7s.3-.2.6.1.8.8.8 1.6c0 .2 0 .7.2.4.1-.1.7-.7.5-.3-.2.3-.2.5-.2.7 0 .2 0 1-.4 1-.6 0-.7-.1-1.3-.1-.1 0-.4 0-.5-.4-.1-.5 0-2 0-2.3 0-.1-.2 0-.2.1-.1.1-.1.5-.5 1.1-.1.2-.6.8-.7.9m-1.5 3.5c.1-.1.3-1.5.8-1.8.1-.1.6 0 .7 0 .1 0 .5-.1.8 0 .2.1.6.4.8 1.6 0 .1.3.1.8.8 0 .1.1.3.2-.1 0-.1.4-1.3.4-1.2 0 0 .2.6.2 1v.7c0 .2 0-.1.6-.6.1-.1.5-.5.4-.2-.1.1-.2.6-.3.8-.1.1-.1.4-.1.5.1.4.3 1.2-.3 1.3-.5.1-.4-.1-.9-.1-.7 0-.6.2-1 .2-.1 0-.8-.3-.9-1.8-.1-1.5-.5-2.5-.6-2.5-.3.2-.8 1-1.2 1.6m2.3 2.5c.4.2.6-.1.6-.5s-.3-1.3-.5-1.5c-.5-.5-.1-.3.3-.1.2.2.7.7.5.4-.2-.3-.4-.7-.4-1.1m-.3-2.9c.2.2.6 0 .4-.3-.1-.3-.5-.6-.3-1.4.1-.2.2.2.2.3.1.2.4.2.4.6 0 0 0-.5.2-.7.1-.1.2-.4.2-.5s.1.4.2.5c.1.1.1.6.1.9 0 .1.1-.5.4-.8m-2.4-1.9c.1 0 .7.2.5 1.2m-1.1-.8c-.2.4-.4 1-.4 2.3m1.3-1.8c-.2.4-.9 1.1-1.2 1.2m-.4 2.5c.4 0 .6.3.8.9m-1.2-.6c-.2.5 0 1.4-.2 1.6m1.2-1.6c-.3.2-.9.9-1.1.9m2.9-2.3v.2c0 .1-.2.5-.2.6.1.1.2.1.2.1m1.3-.9s.1.1.1.2 0 .5.1.6c.1.1.2 0 .2 0m-1.4-.8v.2c0 .1-.1.3-.1.5 0 .1 0 .2.2.2m.5-.8c-.1.3-.1.5 0 .7 0 .1.1.2.1.2m.1-.9c-.1.3 0 .5 0 .7 0 .1.1.2.2.2m-.6-1s-.1.3-.1.4c0 .1-.1.4 0 .5.1.1 0 .5 0 .6-.1.2-.2 1 .1.9.1-.1.1-.2.1-.3m.4 3.5c0 .2.1 1 .4.9m0-.9c0 .2.1.8.4.7m-2-.6s.1.8-.3.9m.7-1s.1 1-.3 1m.7-1.1s-.1 1.1.3 1.1m-.5-1.1v.9c0 .1-.3 1.5.1 1.9.1.1.5.2.3-.4" transform="translate(0 .178)"/><path class="st1" d="M52.9 18.6c0 .3.4.6.9.6s.9-.2.9-.5-.4-.6-.9-.6-.9.3-.9.5m-4.1.1h2.5v-.9h-2.5zm9.1.3l-.4.6-1.1-.8 1.3-.4.2.6" transform="translate(0 .178)"/><path class="st6" d="M56.4 19l1.4.2-1.4-.2zm-1.5-2.6c-.1-.5.4-.6.5-.5.5.2 0 1.2 0 1.2 1.9-.9.1-2.9-.7-1.6-.1.1.7-.9-.2-2.6-1.2 1.4-.7 2.6-.8 2.5-.4-1.4-2.7.1-1.1 1.4 0 0-.3-1 .3-1.1.2 0 .6.1.4.6l1.6.1zm.2.3c0 .2-.2.3-.4.3l-1.4-.2c-.2 0-.3-.2-.3-.3 0-.2.2-.3.4-.3l1.4.2c.2 0 .4.1.3.3zm3-2.3c1.8-3.9-.8-4.8-1.8-4.8-2.1.1-2.1 1.3-4.7 1.4" transform="translate(0 .178)"/><path class="st6" d="M52 9.9c2.2 0 1.8-1.2 4.3-1.2 1.6 0 4.8 1 2.7 6.1m-9.2-9.7c-.2-.5-.6-1.1-.6-1.1H51s-.5.7-.6 1.2m-.7.9c-.2.7-.9 1.7-.9 1.7m2.5 0s-.7-1.1-.9-1.7m-.8-.3c-.5.1-1.2.6-1.2.6V4.7s.7.5 1.2.6m1 .6c.5.2 1.1.6 1.1.6V4.7s-.7.4-1.2.6m-.9 4.9c-.6-.2-1-.8-1-1.5 0-.8.7-1.5 1.5-1.5s1.5.7 1.5 1.5c0 .7-.4 1.2-1.1 1.4M48.6 9h3m-1.9-1.7v1.1h-1.1m1.9-1.1v1.1h1.1" transform="translate(0 .178)"/><path class="st6" d="M49.5 15.1c-.1-.5-1.2-1.5-1.2-1.5h3.1s-1 .9-1.2 1.5h-.7zm.9.1c.4 0 1.3-.9 1.3-.9v2.4s-.9-.9-1.3-.9v-.6zm-.9 0c-.4 0-1.3-.9-1.3-.9v2.4s.9-.9 1.3-.9v-.6zm1-1.6s.1-1.2.2-2.1c.1-.9.6-2.1.6-2.1h.8s-.5 1.1-.8 2.1c-.2.8-.2 2.1-.2 2.1h-.6zm7.2 3.2c-.2.6-.9 1-1.7 1-.7 0-1.2-.4-1.5-.9l3.2-.1zm-4.3 0c-.3.4-.9.6-1.5.5-.9-.1-1.6-.8-1.5-1.6l3 1.1zm4.7.3c-.2.4-.3.9-.5 1.5l.5-1.5zm-.2-.9c.1-.5-.7-1.9-.7-1.9l1.9.6c-.2.4-.4.8-.6 1.3h-.6zm0 0c-.4-.1-1-1.3-1-1.3l-.7 2.3s1.1-.6 1.5-.5h.1l.1-.5zm-3.3 2.6c0 .3-.4.5-.9.5s-.9-.3-.9-.5c0-.3.4-.5.9-.5s.9.3.9.5zm-5.9.1h2.5V18h-2.5v.9zm9.1.3l-.4.6-1-.8 1.2-.5.2.7z" transform="translate(0 .178)"/><path class="st6" d="M42.3 18.2l.2-.7c.2.3.8.5 1.7.5.8-.1 1.5-.4 1.6-.8l.4.6.2-.7c.2.4 1 .6 1.9.5.8-.2 1.5-.6 1.5-1l.3.8.3-.8c.1.4.7.8 1.5 1 .9.2 1.7 0 1.9-.5l.2.7.4-.6c.1.4.8.7 1.6.8.8.1 1.5-.1 1.7-.5l.2.7M49.7 6.1c-.2-.2-.3-.5-.1-.8.2-.2.5-.3.8-.1.2.2.3.5.1.8-.3.3-.6.3-.8.1zm0 0c-.2-.2-.3-.5-.1-.8.2-.2.5-.3.8-.1.2.2.3.5.1.8-.3.3-.6.3-.8.1zm9.8 8.7c-.3-.2-.3-.7-.1-1 .3-.3.7-.3 1-.1.3.2.3.7.1 1-.3.3-.7.4-1 .1zm0 0c-.3-.2-.3-.7-.1-1 .3-.3.7-.3 1-.1.3.2.3.7.1 1-.3.3-.7.4-1 .1zm.4-1.5c-.3-.2-.3-.7-.1-1 .3-.3.7-.3 1-.1.3.2.3.7.1 1-.3.3-.7.4-1 .1zm0 0c-.3-.2-.3-.7-.1-1 .3-.3.7-.3 1-.1.3.2.3.7.1 1-.3.3-.7.4-1 .1zm0-1.5c-.3-.2-.3-.7-.1-1s.7-.3 1-.1c.3.2.3.7.1 1-.2.3-.7.3-1 .1zm0 0c-.3-.2-.3-.7-.1-1s.7-.3 1-.1c.3.2.3.7.1 1-.2.3-.7.3-1 .1zm-.4-1.5c-.3-.2-.3-.7-.1-1 .3-.3.7-.3 1-.1.3.2.3.7.1 1-.3.3-.7.3-1 .1zm0 0c-.3-.2-.3-.7-.1-1 .3-.3.7-.3 1-.1.3.2.3.7.1 1-.3.3-.7.3-1 .1zm-1.1-1.2c-.3-.2-.3-.7-.1-1 .3-.3.7-.3 1-.1.3.2.3.7.1 1-.3.4-.7.4-1 .1zm0 0c-.3-.2-.3-.7-.1-1 .3-.3.7-.3 1-.1.3.2.3.7.1 1-.3.4-.7.4-1 .1zm-1.5-.5c-.3-.2-.3-.7-.1-1 .3-.3.7-.3 1-.1.3.2.3.7.1 1-.3.3-.7.3-1 .1zm0 0c-.3-.2-.3-.7-.1-1 .3-.3.7-.3 1-.1.3.2.3.7.1 1-.3.3-.7.3-1 .1zm-3.1.2c-.3-.2-.3-.7-.1-1s.7-.3 1-.1c.3.2.3.7.1 1-.3.3-.7.4-1 .1zm0 0c-.3-.2-.3-.7-.1-1s.7-.3 1-.1c.3.2.3.7.1 1-.3.3-.7.4-1 .1zm-1.4.7c-.3-.2-.3-.7-.1-1 .3-.3.7-.3 1-.1.3.2.3.7.1 1-.3.3-.7.4-1 .1zm0 0c-.3-.2-.3-.7-.1-1 .3-.3.7-.3 1-.1.3.2.3.7.1 1-.3.3-.7.4-1 .1zm5.3 7.1c0-.3.3-.5.5-.5s.4.3.4.6-.3.5-.5.5c-.3-.1-.4-.3-.4-.6zm0 0c0-.3.3-.5.5-.5s.4.3.4.6-.3.5-.5.5c-.3-.1-.4-.3-.4-.6zm-8.1-6.4c-.2-.2-.2-.5 0-.7.2-.2.5-.3.8-.1.2.2.3.5.1.8h-.9zm0 .8c-.2-.2-.2-.5 0-.7.2-.2.5-.3.8-.1.2.2.3.5.1.8h-.9zm0 .8c-.2-.2-.2-.5 0-.7.2-.2.5-.3.8-.1.2.2.3.5.1.8h-.9zm0 .8c-.2-.2-.2-.5 0-.7.2-.2.5-.3.8-.1.2.2.3.5.1.8h-.9zm.1.8c-.2-.2-.3-.5-.1-.8.2-.2.5-.3.8-.1.2.2.3.5.1.8-.3.3-.6.3-.8.1zm0 0c-.2-.2-.3-.5-.1-.8.2-.2.5-.3.8-.1.2.2.3.5.1.8-.3.3-.6.3-.8.1zm0 2.5c-.2-.2-.3-.5-.1-.8.2-.2.5-.3.8-.1.2.2.3.5.1.8-.3.3-.6.3-.8.1zm0 0c-.2-.2-.3-.5-.1-.8.2-.2.5-.3.8-.1.2.2.3.5.1.8-.3.3-.6.3-.8.1zm5.6-7.3c-.3-.3-.3-.7-.1-1 .3-.3.7-.3 1-.1.3.3.3.7.1 1-.3.3-.7.3-1 .1zm0 0c-.3-.3-.3-.7-.1-1 .3-.3.7-.3 1-.1.3.3.3.7.1 1-.3.3-.7.3-1 .1zM42.4 21.5c-.3-.3-.3-.4-.2-.8 0-.2.4-.6.6-.6h.3c.1 0 .2-.2.6 0 0 0 .1 0 .2.1 0 0 .4-.3.8-.2 0 0 .1 0 .2.1 0 0 .3-.3.7-.1 0 0 .2 0 .2.1 0 0 .3-.2.7-.1 0 0 .1 0 .2.1 0 0 .3-.2.7-.1 0 0 .1.1.2.1 0 0 .2-.2.7-.1 0 0 .1 0 .1.1 0 0 .3-.2.7-.1l.2.1s.3-.2.7-.1c0 0 .1.1.2.1 0 0 .2-.2.7-.1l.1.1s.3-.2.8-.1c.1 0 .1 0 .1.1 0 0 .4-.2.8 0 0 0 .1 0 .1.1 0 0 .3-.2.7 0l.1.1s.3-.2.7 0c0 0 .1.1.2.1 0 0 .3-.2.7 0 0 0 .1.1.2.1 0 0 .3-.2.7 0 0 0 .1.1.2.1 0 0 .4-.2.8 0 .1 0 .1.1.2.1 0 0 .2 0 .3.1 0 0 .4.5.1 1.2" transform="translate(0 .178)"/><path class="st1" d="M55.4 21.7s.5-.5 1.5-.2c.1 0 .4.1.7 0 .1 0 .9-.3 1.4 0 .1.1.8.6.9 1.5 0 .1 0 .5-.1.5l-3.3-.3-.4-.7c-.1-.1-.4-.6-.7-.8m-6.5-.3s.6-.3 1.5-.1h.5c.1 0 .8-.2 1.4.2.1 0 .4.3.6.7 0 .1.3.6.3.6l-3.6-.1s-.1-.3-.2-.4c0-.1-.2-.5-.5-.8.2 0 0-.1 0-.1m-6.4.1s.6-.4 1.5-.2h.4c.1 0 .7-.2 1.2.1.1 0 .5.2.8.9l.3.6-3.4.2c-.1-.1-.2-.6-.5-1.1.1-.1-.1-.3-.3-.5" transform="translate(0 .178)"/><path class="st1" d="M43.4 23s2.9-.2 3.5-.2c0 0 .3.6.8.9 0 0-.6.4-1.4.2-.1 0-.6-.2-1 0 0 0-.7.3-1.3-.1-.1 0-.4-.4-.5-.6 0-.1-.1-.2-.1-.2m6.4-.2s2.7 0 3.6.1c0 0 .2.5.7.9 0 0-.6.5-1.5.2-.1 0-.3-.2-.9-.1-.1 0-.9.2-1.4-.4-.1-.1-.2-.3-.4-.6-.1 0-.1-.1-.1-.1m6.5.4s2.2.2 3.4.3c0 0-.2.9-.9.8-.1 0-.4-.2-1.1-.1-.1 0-.4.2-.9-.2-.1-.1-.3-.3-.4-.5-.1-.2-.1-.3-.1-.3" transform="translate(0 .178)"/><path class="st6" d="M44.1 23.9c-.1 0-.6.4-1.4.2-.5-.1-1.2.6-2-.3-.8-.8-.2-2.5 1.2-2.5 0 0 .8-.1 1.4 1.4 0 .1.7 1.8 2.1 1.2.1 0 .3-.1.9 0 .4.1 1.1 0 1.4-.2m-5.2-2.1c.1-.1.6-.4 1.6-.2h.5c.4-.1 1.1-.2 1.7.6.4.5.5 1.2 1.4 1.8.1.1.6.3 1.1.1.1 0 .3-.1.5 0s.9.1 1.2-.1m-4.7-2.3c.1 0 .2.1.7-.2.2-.1.5-.2 1 0 .2.1.4 0 .5 0 .1 0 1.2-.3 1.7 1.1 0 .1.3 1.4 1.4 1.5.6 0 .9-.2 1.5 0 .1 0 1 .3 1.5-.2M49 21.5s.6-.3 1.4-.1c.1 0 .3.1.6 0 .1 0 1.1-.3 1.8.7.5.7.9 2.1 2.1 2 .1 0 .6-.1.9.1.1.1.7.2 1.2-.1m-4.6-2.5s.5-.4 1.5 0c.4.2.9-.2 1.4.2.9.8 1 2.4 2 2.4.3 0 .7-.2 1.3 0 .8.2 1.6-1.3.3-2.5-.2-.2-.5-.5-1.5-.2-.1 0-.4.1-.9-.1-.1 0-.8-.1-1.3.2" transform="translate(0 .178)"/><path class="st1" d="M40.8 22.3c0 .1-.3 1 .8 1.6.1 0-.2-.1-.1-1.3 0-.1.5 1 1.8.9 0 0-.3-.1-.4-.6 0-.1-.4-1-1.1-1.4 0 0 .3.3.5.9 0 .1.1.4.1.4s-.5-.2-1-.7c0 0-.2.8-.1 1 0 .1-.4-.4-.5-.9v.1m5.8-.6c.6.2 1 .9 1.3 1.1 0 0-.3-.5-.3-1.1 0 0 .8.6 1 .7 0 0 .5.5.6.4.1 0-.4-.8-.8-1.2-.1-.1.4.1 1.3 1.4.1.1.2.4.3.4 0 0-1 .1-2-1.2 0 0 .2.6.8 1.2 0 .1-.9 0-1.6-1.1-.1 0-.3-.4-.6-.6.1 0 0 0 0 0m6.4 0c.6.2.9.9 1.3 1.3 0 0-.3-.3-.2-1.2 0 0 .2.4.7.8 0 0 .6.5.7.4.1 0-.3-.9-.6-1.3-.1-.1.4.1 1.2 1.4.1.1.3.4.4.5 0 0-.9.2-2-1.3 0-.1.1.6.6 1.2 0 .1-.8 0-1.4-1.2-.2.1-.4-.3-.7-.6.1.1 0 0 0 0m-4.2-1.2c.6 0 .6.3 1.3.3.4 0 .7-.1.6-.1-.3 0-.7.1-1.1-.2 0 0 .7 0 1-.1-.4-.1-1.1 0-1-.1.4-.3.8-.2 1.1-.2.1 0-.2-.1-.6-.1-.8.2-.8.4-1.3.5m3.2.1c.6.1.6.4 1.4.4.4 0 .8-.1.7-.1-.3 0-.8.1-1.1-.2h1.1c-.4-.1-1.1-.1-1.1-.1.4-.2.9-.1 1.2-.1.1 0-.2-.1-.6-.2-1 0-1 .2-1.6.3m3 .2c.6.1.6.4 1.4.4.4 0 .8-.1.7-.1-.3 0-.8.1-1.1-.2 0 0 .7.1 1.1 0-.4-.1-1.1-.1-1.1-.2.4-.2.9-.1 1.2-.1.1 0-.2-.1-.6-.2-.9.1-1 .3-1.6.4m-9.3-.2c.6 0 .7.3 1.5.2.4 0 .7-.2.6-.2-.3 0-.7.2-1.2-.1 0 0 .7-.1 1.1-.1h-1.1c.4-.3.8-.2 1.1-.2.1 0-.2-.1-.7-.1-.7.1-.7.4-1.3.5m-2.8.2c.6 0 .7.3 1.5.2.4 0 .7-.2.6-.2-.3 0-.7.2-1.2-.1 0 0 .7-.1 1.1-.2h-1.1c.4-.3.8-.2 1.1-.2.1 0-.2-.1-.7-.1-.7.2-.7.5-1.3.6" transform="translate(0 .178)"/><path class="st6" d="M41.8 17.1c.2.5.4 1 .5 1.6m-1.6-3.9c.2.4.4.9.7 1.4m.9.4c0-.3-.3-.5-.5-.5s-.4.3-.4.5c0 .3.3.5.5.5.3 0 .5-.2.4-.5z" transform="translate(0 .178)"/><path class="st6" d="M41.4 16.1c-.2.1-.2.3-.2.6.1.3.3.5.5.5m15.7 2.4c0 .1-.1.6-.1.7m.8-3.2c-.2.5-.4 1-.5 1.6m1.5-3.9c-.2.4-.4.9-.6 1.4m-.1-.1c.2.1.2.3.2.6-.1.3-.3.5-.5.5" transform="translate(0 .178)"/><path class="st6" d="M57.9 16.6c0-.3.3-.5.5-.5s.4.3.4.6-.3.5-.5.5c-.3-.1-.5-.3-.4-.6zm-6.5-4.5c.3-.3 1.2-.8 2.3-.6 1.3.2 1.1.2 1.2.2.1-.1 1.4-.8 2.8-.5.2.1 1 .4 1 .6l-7.3.3zm-2.7 0c-.3-.3-1.2-.8-2.3-.6-1.3.2-1.1.2-1.2.2-.1-.1-1.4-.8-2.8-.5-.2.1-1 .4-1 .6l7.3.3z" transform="translate(0 .178)"/></svg>